<svg width="40" height="41" viewBox="0 0 40 41" fill="none" xmlns="http://www.w3.org/2000/svg">
<path d="M37.4696 20.965L39.5 22.554V40.0713H22.6087H0.5V22.554L2.53038 20.965L3.0335 20.5713L2.53038 20.1775L0.5 18.5885V1.07129H16.9565H39.5V18.5885L37.4696 20.1775L36.9665 20.5713L37.4696 20.965Z" fill="#E22126" stroke="#E22126"/>
<path d="M29.0002 20.5713C29.0002 25.5419 24.9708 29.5713 20.0002 29.5713C17.9545 29.5713 15.9093 28.5899 15.9093 28.5899L11 29.5713L11.8184 24.3259C11.8184 24.3259 11 22.2077 11.0002 20.5713C11.0002 15.6007 15.0296 11.5713 20.0002 11.5713C24.9708 11.5713 29.0002 15.6007 29.0002 20.5713Z" fill="white"/>
<path d="M22.9758 21.5069C22.7926 21.3161 22.5716 21.2141 22.3374 21.2141C22.105 21.2141 21.8821 21.3142 21.6914 21.505L21.0945 22.1C21.0453 22.0735 20.9962 22.049 20.949 22.0244C20.881 21.9904 20.8168 21.9583 20.762 21.9243C20.2029 21.5692 19.6948 21.1064 19.2074 20.5076C18.9713 20.2092 18.8127 19.958 18.6974 19.7029C18.8523 19.5613 18.9959 19.4139 19.1357 19.2723C19.1885 19.2194 19.2414 19.1646 19.2943 19.1117C19.691 18.715 19.691 18.2013 19.2943 17.8046L18.7787 17.2889C18.7201 17.2304 18.6597 17.1699 18.603 17.1095C18.4896 16.9924 18.3706 16.8715 18.2479 16.7581C18.0646 16.5768 17.8455 16.4805 17.6151 16.4805C17.3846 16.4805 17.1617 16.5768 16.9729 16.7581C16.971 16.76 16.971 16.76 16.9691 16.7619L16.3268 17.4098C16.0851 17.6516 15.9472 17.9463 15.917 18.2882C15.8716 18.8397 16.0341 19.3535 16.1587 19.6897C16.4647 20.5152 16.9219 21.2802 17.6037 22.1C18.4311 23.0879 19.4265 23.868 20.5637 24.4177C20.9981 24.6236 21.578 24.8672 22.2259 24.9088C22.2656 24.9107 22.3071 24.9126 22.3449 24.9126C22.7813 24.9126 23.1477 24.7558 23.4348 24.4441C23.4367 24.4403 23.4405 24.4384 23.4424 24.4347C23.5406 24.3157 23.6539 24.208 23.7729 24.0928C23.8542 24.0153 23.9373 23.9341 24.0185 23.8491C24.2055 23.6545 24.3037 23.4279 24.3037 23.1955C24.3037 22.9613 24.2036 22.7365 24.0128 22.5476L22.9758 21.5069ZM23.652 23.4959C23.6502 23.4959 23.6502 23.4978 23.652 23.4959C23.5784 23.5752 23.5028 23.647 23.4216 23.7263C23.2988 23.8434 23.1741 23.9662 23.057 24.1041C22.8663 24.3081 22.6415 24.4044 22.3468 24.4044C22.3185 24.4044 22.2882 24.4044 22.2599 24.4026C21.6989 24.3667 21.1776 24.1476 20.7866 23.9605C19.7174 23.443 18.7787 22.7082 17.9985 21.777C17.3544 21.0006 16.9237 20.2828 16.6385 19.5122C16.4628 19.0418 16.3986 18.6754 16.427 18.3297C16.4458 18.1087 16.5308 17.9255 16.6876 17.7687L17.3317 17.1246C17.4243 17.0377 17.5225 16.9905 17.6189 16.9905C17.7379 16.9905 17.8342 17.0623 17.8946 17.1227C17.8965 17.1246 17.8984 17.1265 17.9003 17.1284C18.0155 17.236 18.1251 17.3475 18.2403 17.4665C18.2989 17.5269 18.3593 17.5874 18.4198 17.6497L18.9354 18.1654C19.1357 18.3656 19.1357 18.5507 18.9354 18.7509C18.8807 18.8057 18.8278 18.8605 18.773 18.9134C18.6143 19.0758 18.4632 19.2269 18.2989 19.3743C18.2951 19.3781 18.2913 19.3799 18.2894 19.3837C18.127 19.5462 18.1572 19.7048 18.1912 19.8125C18.1931 19.8182 18.195 19.8238 18.1969 19.8295C18.331 20.1544 18.5199 20.4604 18.807 20.825L18.8089 20.8268C19.3302 21.4691 19.8799 21.9696 20.4862 22.3531C20.5637 22.4022 20.643 22.4419 20.7186 22.4796C20.7866 22.5136 20.8508 22.5458 20.9056 22.5798C20.9131 22.5835 20.9207 22.5892 20.9282 22.593C20.9925 22.6251 21.0529 22.6402 21.1152 22.6402C21.272 22.6402 21.3702 22.542 21.4023 22.5099L22.0484 21.8639C22.1126 21.7996 22.2146 21.7222 22.3336 21.7222C22.4507 21.7222 22.547 21.7959 22.6056 21.8601C22.6075 21.862 22.6075 21.862 22.6094 21.8639L23.6502 22.9046C23.8447 23.0973 23.8447 23.2957 23.652 23.4959Z" fill="#E22126" stroke="#E22126" stroke-width="0.2"/>
</svg>
