<svg width="51" height="47" viewBox="0 0 51 47" fill="none" xmlns="http://www.w3.org/2000/svg">
<g clip-path="url(#clip0_2114_6918)">
<path d="M30.8372 21.9832C32.3467 21.0086 33.9641 20.4671 35.7971 20.1422C35.7971 19.8173 35.7971 19.6007 35.7971 19.2758V16.6768H33.1015H32.5624V13.4279H35.9049V10.5039V3.03159V0.324219H0.323486V13.3196H3.12687V16.5685H3.01905H0.323486V29.5638H2.69558C2.8034 29.5638 2.91122 29.5638 3.01905 29.5638C3.88163 29.5638 4.85203 29.5638 5.71461 29.5638H16.6047H17.2516V33.3542C15.7421 33.7874 14.8795 34.762 14.4482 36.1698H13.8013C11.1057 36.1698 8.30234 36.1698 5.60678 36.1698V37.7943C8.30234 37.7943 11.1057 37.7943 13.8013 37.7943C14.2326 37.7943 14.4482 37.9026 14.556 38.3357C15.0952 39.8519 16.4968 40.7182 18.0064 40.7182C19.5159 40.7182 20.9176 39.7436 21.4567 38.3357C21.5645 38.1192 21.5645 38.0109 21.6723 37.7943H24.4757C24.3679 37.2528 24.2601 36.7113 24.1522 36.1698H21.6723C21.241 34.6537 20.2706 33.7874 18.8689 33.3542V29.5638H19.5159C20.7019 29.5638 21.9958 29.5638 23.1818 29.5638C23.5053 29.5638 23.8288 29.5638 24.1522 29.5638H24.2601C24.5835 29.5638 24.6914 29.3473 24.907 29.0224C26.093 26.0984 28.1417 23.7159 30.8372 21.9832ZM19.7315 4.43943C21.0254 4.43943 21.9958 5.41408 21.9958 6.71362C21.9958 8.01316 20.9176 8.98781 19.6237 8.98781C18.3298 8.98781 17.3594 7.90486 17.3594 6.71362C17.4672 5.52237 18.4377 4.43943 19.7315 4.43943ZM12.8309 4.43943C14.1248 4.43943 15.0952 5.52237 15.0952 6.71362C15.0952 8.01316 14.1248 8.98781 12.8309 8.98781C11.537 8.98781 10.4588 8.01316 10.4588 6.71362C10.5666 5.52237 11.537 4.43943 12.8309 4.43943ZM5.93025 4.43943C7.22412 4.43943 8.19452 5.41408 8.19452 6.71362C8.19452 8.01316 7.22412 8.98781 5.93025 8.98781C4.63638 8.98781 3.66598 8.01316 3.66598 6.71362C3.66598 5.52237 4.63638 4.43943 5.93025 4.43943ZM3.66598 23.0662C3.66598 21.7666 4.63638 20.792 5.93025 20.792C7.22412 20.792 8.19452 21.7666 8.19452 23.0662C8.19452 24.3657 7.22412 25.3403 5.93025 25.3403C4.63638 25.4486 3.66598 24.3657 3.66598 23.0662ZM10.5666 23.0662C10.5666 21.7666 11.6448 20.792 12.8309 20.792C14.1248 20.792 15.0952 21.8749 15.0952 23.0662C15.0952 24.3657 14.0169 25.4486 12.7231 25.3403C11.537 25.3403 10.4588 24.3657 10.5666 23.0662ZM19.7315 25.4486C18.4377 25.4486 17.3594 24.3657 17.4672 23.0662C17.4672 21.7666 18.5455 20.792 19.7315 20.792C21.0254 20.792 21.9958 21.8749 21.9958 23.0662C21.9958 24.3657 21.0254 25.4486 19.7315 25.4486ZM4.85203 16.5685V13.3196H30.9451V16.5685H4.85203Z" stroke="#E22126" stroke-width="0.8" stroke-miterlimit="10"/>
<path d="M38.277 21.5498C37.4144 21.5498 36.6597 21.6581 35.7971 21.7664C31.4842 22.6328 27.926 25.5567 26.4165 29.6719C25.8774 31.0798 25.554 32.5959 25.554 34.112C25.554 41.0429 31.1607 46.6742 38.0614 46.6742C44.962 46.6742 50.5688 41.0429 50.6766 34.112C50.7844 27.1811 45.1776 21.5498 38.277 21.5498ZM40.5413 36.0613C40.7569 36.7111 40.8647 38.3355 40.9726 38.9853H35.3658C35.4736 38.2272 35.6893 36.7111 35.9049 35.953C36.0127 35.5199 35.9049 35.195 35.5814 34.7618C34.5032 33.4622 34.5032 31.6212 35.6893 30.43C36.7675 29.2387 38.4926 28.9139 39.8943 29.7802C41.6195 30.7549 42.0508 33.1374 40.7569 34.6535C40.5413 35.0867 40.4334 35.5198 40.5413 36.0613Z" stroke="#E22126" stroke-width="0.8" stroke-miterlimit="10"/>
</g>
<defs>
<clipPath id="clip0_2114_6918">
<rect width="51" height="47" fill="white" transform="translate(0 -0.000488281)"/>
</clipPath>
</defs>
</svg>
