<svg width="42" height="42" viewBox="0 0 42 42" fill="none" xmlns="http://www.w3.org/2000/svg">
<g clip-path="url(#clip0_2114_6900)">
<path d="M0.0546875 18.4638C0.295125 18.0484 0.65578 17.9281 1.1148 17.9718C2.74321 18.1139 4.37163 18.2342 6.00004 18.3654C6.52463 18.4091 6.776 18.6605 6.78693 19.1197C6.79786 19.5897 6.52463 19.8849 6.00004 19.9286C4.3607 20.0707 2.72135 20.191 1.08201 20.344C0.622994 20.3878 0.295125 20.2457 0.0546875 19.8521C0.0546875 19.393 0.0546875 18.9338 0.0546875 18.4638Z" stroke="#E22126" stroke-miterlimit="10"/>
<path d="M19.847 0.0546875C20.2514 0.306119 20.3825 0.645005 20.3388 1.126C20.1858 2.75484 20.0656 4.38368 19.9235 6.01252C19.8798 6.51538 19.6066 6.82148 19.1803 6.83241C18.7432 6.84334 18.4372 6.53725 18.3934 6.01252C18.2514 4.36182 18.1312 2.70018 17.9781 1.04948C17.9344 0.601278 18.1093 0.295187 18.47 0.0656193C18.929 0.0546875 19.388 0.0546875 19.847 0.0546875Z" stroke="#E22126" stroke-miterlimit="10"/>
<path d="M23.9453 14.1021C20.6448 17.4036 17.388 20.6612 14.0874 23.9626C12.2186 22.1698 11.4098 19.9616 11.9672 17.3926C12.612 14.4301 14.5027 12.5717 17.4645 11.9595C20.0109 11.4457 22.1858 12.2437 23.9453 14.1021Z" stroke="#E22126" stroke-miterlimit="10"/>
<path d="M8.55737 25.8756C8.48086 25.974 8.3825 26.2254 8.20764 26.3456C6.78687 27.3514 5.35518 28.3462 3.92349 29.33C3.51912 29.6143 3.10381 29.5049 2.84152 29.0786C2.67758 28.8272 2.52458 28.5648 2.39343 28.3024C2.19671 27.898 2.306 27.4935 2.71037 27.2967C4.29507 26.5206 5.8907 25.7553 7.48633 25.001C7.99999 24.7715 8.55737 25.1759 8.55737 25.8756Z" stroke="#E22126" stroke-miterlimit="10"/>
<path d="M8.5683 12.4402C8.57923 13.1617 8.01092 13.5224 7.42076 13.2491C6.68852 12.9212 5.96721 12.5714 5.23497 12.2325C4.43715 11.8608 3.62841 11.4782 2.83059 11.0956C2.27322 10.8223 2.14207 10.4397 2.43715 9.89307C2.53551 9.71816 2.63387 9.53232 2.74316 9.35741C3.09289 8.77802 3.46447 8.67963 4.02185 9.06225C5.37704 9.98052 6.7213 10.9097 8.0765 11.828C8.16393 11.8936 8.27322 11.9482 8.32786 12.0248C8.44808 12.1887 8.52458 12.3637 8.5683 12.4402Z" stroke="#E22126" stroke-miterlimit="10"/>
<path d="M29.5301 3.41083C29.4317 3.6404 29.3771 3.82624 29.2787 3.97928C28.317 5.37855 27.3443 6.77783 26.3716 8.1771C26.0874 8.59251 25.6831 8.67996 25.3115 8.46132C24.9618 8.25362 24.8634 7.87101 25.0711 7.4228C25.7924 5.88142 26.5137 4.35096 27.235 2.80958C27.4864 2.27392 27.8907 2.15367 28.4044 2.4379C28.6448 2.56908 28.8962 2.6784 29.1038 2.85331C29.2787 3.00635 29.3989 3.22499 29.5301 3.41083Z" stroke="#E22126" stroke-miterlimit="10"/>
<path d="M10.4153 2.19727C10.6338 2.38311 10.9289 2.52522 11.0382 2.74386C11.8142 4.31804 12.5573 5.90315 13.2896 7.48826C13.4754 7.8818 13.3333 8.27535 12.9836 8.47212C12.6229 8.66889 12.2513 8.59237 11.989 8.22069C10.9945 6.79956 9.99996 5.36749 9.01636 3.92449C8.73221 3.49815 8.83057 3.08274 9.27865 2.80945C9.61745 2.61267 9.97811 2.42683 10.4153 2.19727Z" stroke="#E22126" stroke-miterlimit="10"/>
<path d="M20.1858 36.7854C20.0328 37.3538 19.9017 37.813 19.7705 38.283C19.5519 39.1029 19.3334 39.9119 19.1148 40.7317C18.8634 41.6391 18.0984 42.131 17.2678 41.9014C16.4263 41.6719 16 40.8957 16.2405 39.9775C16.5465 38.8077 16.8634 37.638 17.1694 36.4683C17.2022 36.3481 17.2241 36.2388 17.2678 36.0311C16.9071 36.2716 16.623 36.4574 16.3279 36.6542C15.5738 37.157 14.8197 37.6818 14.0547 38.1737C13.3006 38.6656 12.3935 38.4907 11.9345 37.7802C11.4754 37.0805 11.6612 36.206 12.4044 35.7031C14.317 34.4022 16.2514 33.1232 18.164 31.8223C18.3388 31.7021 18.4918 31.4944 18.5465 31.2976C19.2022 28.9254 19.8361 26.5423 20.4809 24.1701C20.5356 23.9733 20.6448 23.7656 20.7869 23.6235C21.7159 22.6724 22.6448 21.7432 23.5957 20.814C23.7377 20.6828 23.9235 20.5735 24.1093 20.5298C26.4809 19.8848 28.8634 19.2507 31.235 18.5948C31.4427 18.5402 31.6722 18.3653 31.7924 18.1904C33.0383 16.3647 34.2623 14.5282 35.4864 12.6917C35.552 12.6042 35.6066 12.5058 35.6722 12.4184C36.1858 11.6859 37.0492 11.5001 37.7487 11.9592C38.4591 12.4184 38.6339 13.3257 38.1312 14.08C37.5082 15.0311 36.8744 15.9603 36.2514 16.9004C36.1749 17.0097 36.1093 17.119 35.9782 17.3267C36.3935 17.2174 36.7104 17.1409 37.0383 17.0535C38.011 16.7911 38.9836 16.5287 39.9563 16.2773C40.8634 16.0477 41.6394 16.4741 41.8689 17.3267C42.0765 18.1357 41.5957 18.9009 40.7104 19.1524C39.4864 19.4912 38.2623 19.8083 37.0492 20.1362C36.9836 20.1581 36.929 20.18 36.7869 20.2346C37.6394 20.661 38.4263 21.0436 39.2132 21.4371C39.541 21.6011 39.8798 21.7541 40.2077 21.929C41.0383 22.3554 41.3443 23.2081 40.9509 23.9842C40.5683 24.7385 39.705 25.0009 38.8853 24.5964C36.8306 23.5907 34.7869 22.574 32.7213 21.5792C32.5137 21.4808 32.2186 21.459 32 21.5136C29.9345 22.0493 27.8689 22.6068 25.8033 23.1643C25.6722 23.1971 25.541 23.2409 25.3662 23.2955C25.4645 23.4048 25.5301 23.5032 25.6175 23.5797C27.1585 25.1211 28.6995 26.6734 30.2514 28.2039C30.4044 28.3569 30.6667 28.4553 30.8962 28.4663C33.1257 28.6302 35.3552 28.7724 37.5847 28.9145C38.4372 28.9691 39.0055 29.3845 39.1476 30.0951C39.3662 31.1118 38.5793 31.9863 37.5082 31.9098C36.3716 31.8333 35.2241 31.7567 34.0765 31.6802C33.9891 31.6693 33.9017 31.6802 33.7268 31.6802C33.8907 31.8551 34 31.9754 34.1093 32.0847C34.9399 32.9155 35.7705 33.7354 36.5902 34.5771C37.235 35.2221 37.2569 36.1295 36.6667 36.7307C36.0656 37.3429 35.1476 37.332 34.4809 36.676C33.6285 35.8343 32.7869 34.9816 31.9345 34.1289C31.847 34.0415 31.7377 33.954 31.5629 33.79C31.6175 34.6209 31.6503 35.3424 31.705 36.0639C31.7377 36.5667 31.7815 37.0696 31.8142 37.5725C31.8798 38.4579 31.3115 39.1685 30.4481 39.245C29.6285 39.3215 28.9181 38.7312 28.8416 37.8458C28.7213 36.4902 28.6558 35.1237 28.5683 33.7682C28.5028 32.8062 28.4481 31.8333 28.3716 30.8713C28.3607 30.6963 28.2842 30.4886 28.1749 30.3684C26.5793 28.7505 24.9618 27.1435 23.3552 25.5365C23.3224 25.5037 23.2897 25.4928 23.2022 25.4381C23.1366 25.6896 23.0711 25.9082 23.0055 26.1378C22.4809 28.1055 21.9345 30.0842 21.4317 32.0519C21.3771 32.2705 21.3989 32.5657 21.4973 32.7734C22.4809 34.8067 23.4973 36.8291 24.47 38.8733C24.623 39.1904 24.7104 39.5839 24.6776 39.9228C24.623 40.5678 24.0984 41.0597 23.4864 41.1581C22.8525 41.2674 22.1968 40.9504 21.8907 40.3382C21.3771 39.3325 20.8853 38.3158 20.3935 37.2992C20.3607 37.1352 20.2951 37.004 20.1858 36.7854Z" stroke="#E22126" stroke-miterlimit="10"/>
<path d="M3.90881 37.6053C4.04135 36.81 26.0024 15.2357 36.9663 4.54785" stroke="#E22126"/>
</g>
<defs>
<clipPath id="clip0_2114_6900">
<rect width="42" height="42" fill="white"/>
</clipPath>
</defs>
</svg>
