<svg width="88" height="89" viewBox="0 0 88 89" fill="none" xmlns="http://www.w3.org/2000/svg">
<g clip-path="url(#clip0_2208_392)">
<path d="M44.0949 44.1487L88 38.6765V0.148682H0V38.6765L43.9051 44.1487H44.0949Z" fill="#E22126"/>
<path d="M43.9051 44.1487L0 49.6209V88.1487H88V49.6209L44.0949 44.1487H43.9051Z" fill="#EDEDED"/>
<path d="M21.8599 17.8939H17.2314V13.968H30.7881V17.8939H26.1597V30.3291H21.8599V17.8939Z" fill="white"/>
<path d="M36.324 30.3291H32.0474V13.968H36.324V30.3291Z" fill="white"/>
<path d="M42.188 30.3291H38.0225V13.968H42.188L47.3302 23.0606L52.4492 13.968H56.6148V30.3291H52.4492V21.843L48.7465 28.6949H45.9046L42.2019 21.8662L42.188 30.3291Z" fill="white"/>
<path d="M58.3179 13.968H70.6757V17.8939H62.5899V20.1162H69.2965V24.0421H62.5899V26.4032H70.8146V30.3291H58.3179V13.968Z" fill="white"/>
<path d="M26.0161 57.6209C27.7174 57.6016 29.39 58.0604 30.8435 58.945C32.2297 59.7748 33.3306 61.0068 34.0001 62.4774L29.8068 64.0098C29.4777 63.3167 28.949 62.7379 28.2886 62.3477C27.6007 61.9423 26.8145 61.7341 26.0161 61.7459C25.4527 61.7348 24.8933 61.8425 24.3742 62.0618C23.855 62.2812 23.3879 62.6073 23.003 63.019C22.606 63.4318 22.2952 63.9194 22.0886 64.4536C21.882 64.9877 21.7837 65.5576 21.7996 66.1301C21.7675 67.3004 22.2002 68.4357 23.003 69.2875C23.3932 69.6908 23.8619 70.0097 24.3801 70.2247C24.8983 70.4397 25.4551 70.5462 26.0161 70.5375C26.8145 70.5493 27.6007 70.3411 28.2886 69.9357C28.949 69.5455 29.4777 68.9667 29.8068 68.2737L34.0001 69.8292C33.3306 71.2998 32.2297 72.5318 30.8435 73.3616C29.3917 74.2501 27.718 74.7092 26.0161 74.6857C24.8689 74.7145 23.7275 74.5125 22.6598 74.0918C21.592 73.6711 20.6196 73.0403 19.8001 72.2366C18.1987 70.619 17.3003 68.4345 17.3003 66.1579C17.3003 63.8814 18.1987 61.6968 19.8001 60.0792C20.6188 59.2739 21.5909 58.6413 22.6587 58.219C23.7265 57.7967 24.8682 57.5933 26.0161 57.6209Z" fill="#1D1D1B"/>
<path d="M38.2633 74.3941H33.7876L40.6423 57.9033H44.2015L51.0284 74.3941H46.5342L45.5669 71.945H39.2538L38.2633 74.3941ZM42.4288 64.0515L40.7811 68.1533H44.0534L42.4288 64.0515Z" fill="#1D1D1B"/>
<path d="M56.1428 74.3941H51.9263V57.9033H56.1428L61.3219 67.07L66.4826 57.9033H70.6991V74.3941H66.4826V65.8431L62.7382 72.7459H59.8871L56.1428 65.8894V74.3941Z" fill="#1D1D1B"/>
<path d="M39.3414 83.1949V84.5143H38.6147V80.7736H40.2902C40.4598 80.7673 40.629 80.7948 40.7879 80.8544C40.9468 80.914 41.0923 81.0045 41.2159 81.1208C41.3343 81.2313 41.4288 81.3649 41.4934 81.5135C41.5579 81.662 41.5913 81.8223 41.5913 81.9842C41.5913 82.1462 41.5579 82.3065 41.4934 82.455C41.4288 82.6035 41.3343 82.7372 41.2159 82.8477C41.0923 82.9639 40.9468 83.0545 40.7879 83.1141C40.629 83.1737 40.4598 83.2012 40.2902 83.1949H39.3414ZM40.3041 81.4356H39.3414V82.556H40.3041C40.3763 82.5586 40.4483 82.5459 40.5153 82.5188C40.5823 82.4917 40.6428 82.4507 40.6929 82.3986C40.7447 82.3473 40.7854 82.2859 40.8124 82.2182C40.8395 82.1505 40.8524 82.0779 40.8503 82.0051C40.8529 81.9328 40.8402 81.8608 40.8131 81.7938C40.786 81.7268 40.745 81.6663 40.6929 81.6162C40.6426 81.559 40.5806 81.5133 40.5112 81.4822C40.4417 81.451 40.3664 81.4352 40.2902 81.4356H40.3041Z" fill="#1D1D1B"/>
<path d="M42.1187 80.7736H43.8451C44.1873 80.7629 44.5199 80.8877 44.7707 81.1208C44.8916 81.2288 44.9876 81.3617 45.0523 81.5104C45.117 81.659 45.1489 81.8198 45.1456 81.9819C45.148 82.2141 45.0803 82.4417 44.9512 82.6347C44.8268 82.8292 44.6459 82.981 44.4329 83.0699L45.2891 84.5143H44.4653L43.6784 83.1949H42.8083V84.5143H42.1187V80.7736ZM43.8451 81.4356H42.8083V82.556H43.8219C43.8948 82.5581 43.9673 82.5452 44.0349 82.5181C44.1026 82.4911 44.164 82.4504 44.2153 82.3986C44.2656 82.3464 44.305 82.2847 44.3312 82.2172C44.3574 82.1496 44.37 82.0775 44.3681 82.0051C44.3704 81.9333 44.3581 81.8617 44.3318 81.7949C44.3055 81.728 44.2659 81.6672 44.2153 81.6162C44.1653 81.5611 44.1047 81.5167 44.0371 81.4856C43.9695 81.4546 43.8963 81.4376 43.8219 81.4356H43.8451Z" fill="#1D1D1B"/>
<path d="M47.4322 80.7043C47.6898 80.6987 47.946 80.7452 48.1852 80.841C48.4244 80.9369 48.6418 81.0802 48.8243 81.2623C49.0067 81.4443 49.1505 81.6614 49.2469 81.9005C49.3433 82.1396 49.3904 82.3957 49.3854 82.6534C49.3911 82.9113 49.3444 83.1677 49.2482 83.4071C49.152 83.6464 49.0083 83.8638 48.8257 84.046C48.6431 84.2282 48.4255 84.3714 48.186 84.4671C47.9464 84.5627 47.69 84.6088 47.4322 84.6025C47.1744 84.6095 46.9179 84.5639 46.6783 84.4684C46.4387 84.3729 46.2211 84.2296 46.0387 84.0472C45.8564 83.8648 45.7131 83.6471 45.6176 83.4075C45.5222 83.1678 45.4766 82.9113 45.4836 82.6534C45.4779 82.3959 45.5244 82.1399 45.6204 81.9008C45.7163 81.6618 45.8596 81.4447 46.0417 81.2625C46.2238 81.0804 46.4408 80.937 46.6798 80.8411C46.9188 80.7452 47.1747 80.6986 47.4322 80.7043ZM46.2334 82.6534C46.2276 82.8184 46.255 82.9829 46.3138 83.1371C46.3726 83.2914 46.4618 83.4323 46.5759 83.5515C46.6886 83.6645 46.8224 83.7541 46.9697 83.8153C47.117 83.8764 47.275 83.9079 47.4345 83.9079C47.594 83.9079 47.7519 83.8764 47.8993 83.8153C48.0466 83.7541 48.1804 83.6645 48.2931 83.5515C48.5168 83.306 48.6409 82.9857 48.6409 82.6534C48.6409 82.3211 48.5168 82.0008 48.2931 81.7553C48.1829 81.6381 48.0493 81.5454 47.901 81.4832C47.7527 81.421 47.593 81.3907 47.4322 81.3941C47.272 81.3901 47.1128 81.4203 46.9652 81.4825C46.8176 81.5448 46.6849 81.6378 46.5759 81.7553C46.4629 81.8734 46.3744 82.0128 46.3156 82.1654C46.2568 82.3179 46.2289 82.4807 46.2334 82.6441V82.6534Z" fill="#1D1D1B"/>
</g>
<defs>
<clipPath id="clip0_2208_392">
<rect width="88" height="88" fill="white" transform="translate(0 0.148682)"/>
</clipPath>
</defs>
</svg>
