<svg width="294" height="245" viewBox="0 0 294 245" fill="none" xmlns="http://www.w3.org/2000/svg">
<g clip-path="url(#clip0_4162_12)">
<path d="M83.7156 105.235H87.3145C87.4629 105.224 87.6121 105.243 87.7526 105.292C87.8931 105.34 88.022 105.417 88.131 105.517C88.2401 105.617 88.327 105.739 88.3863 105.874C88.4456 106.009 88.4759 106.155 88.4755 106.302V182.766C88.4755 183.049 88.3619 183.32 88.1597 183.52C87.9576 183.72 87.6834 183.832 87.3975 183.832H83.7156V105.235Z" stroke="#590100" stroke-width="0.5" stroke-miterlimit="10"/>
<path d="M88.4756 125.762H273.714C274.147 125.782 274.558 125.962 274.864 126.265C275.171 126.569 275.352 126.975 275.373 127.403V135.017C275.136 135.166 274.856 135.235 274.577 135.214C274.365 135.192 274.161 135.125 273.979 135.017V130.373C273.94 130.064 273.8 129.777 273.581 129.553C273.357 129.347 273.073 129.215 272.769 129.175H88.4756V125.762Z" stroke="#590100" stroke-width="0.5" stroke-miterlimit="10"/>
<path d="M88.4092 160.27L254.724 131.653L255.985 129.176" stroke="#590100" stroke-width="0.5" stroke-miterlimit="10"/>
<path d="M88.1438 163.666L255.868 134.804H273.88" stroke="#590100" stroke-width="0.5" stroke-miterlimit="10"/>
<path d="M266.848 134.804H256.698V138.266H266.848V134.804Z" stroke="#590100" stroke-width="0.5" stroke-miterlimit="10"/>
<path d="M261.773 138.266V134.804" stroke="#590100" stroke-width="0.5" stroke-miterlimit="10"/>
<path d="M265.206 138.266H258.34V140.218H265.206V138.266Z" stroke="#590100" stroke-width="0.5" stroke-miterlimit="10"/>
<path d="M275.339 115.638V124.417C275.339 124.523 275.298 124.625 275.224 124.701C275.15 124.778 275.048 124.823 274.941 124.827H248.289C248.179 124.827 248.074 124.784 247.996 124.707C247.918 124.63 247.875 124.526 247.875 124.417V115.638C247.875 115.53 247.918 115.425 247.996 115.348C248.074 115.271 248.179 115.228 248.289 115.228H249.815C251.001 117.248 252.702 118.924 254.748 120.089C256.794 121.255 259.113 121.868 261.474 121.868C263.835 121.868 266.155 121.255 268.201 120.089C270.247 118.924 271.948 117.248 273.134 115.228H274.941C275.048 115.233 275.15 115.278 275.224 115.354C275.298 115.431 275.339 115.532 275.339 115.638Z" stroke="#590100" stroke-width="0.5" stroke-miterlimit="10"/>
<path d="M248.075 98.0384H274.933V108.462C274.933 115.879 268.921 121.891 261.504 121.891C254.087 121.891 248.075 115.879 248.075 108.462V98.0384Z" stroke="#590100" stroke-width="0.4"/>
<path d="M293.284 95.2427H232.318V98.1142H293.284V95.2427Z" stroke="#590100" stroke-width="0.5" stroke-miterlimit="10"/>
<path d="M83.7156 108.501H88.3926" stroke="#590100" stroke-width="0.5" stroke-miterlimit="10"/>
<path d="M83.699 180.354H88.3925" stroke="#590100" stroke-width="0.5" stroke-miterlimit="10"/>
</g>
<g clip-path="url(#clip1_4162_12)">
<path d="M111.323 21.1027V30.1342C111.323 30.2434 111.365 30.3484 111.442 30.427C111.518 30.5056 111.623 30.5517 111.733 30.5556H139.059C139.17 30.5519 139.276 30.5063 139.355 30.428C139.434 30.3498 139.48 30.2448 139.484 30.1342V21.1027C139.48 20.9936 139.433 20.8902 139.354 20.8144C139.275 20.7386 139.169 20.6962 139.059 20.6963H137.541C136.322 22.7637 134.578 24.4786 132.484 25.6704C130.389 26.8621 128.016 27.4892 125.601 27.4892C123.186 27.4892 120.813 26.8621 118.718 25.6704C116.623 24.4786 114.879 22.7637 113.661 20.6963H111.687C111.586 20.7074 111.494 20.7551 111.426 20.8302C111.359 20.9052 111.322 21.0023 111.323 21.1027Z" stroke="#590100" stroke-width="0.5" stroke-miterlimit="10"/>
<path d="M111.741 3.14189H139.465V13.5613C139.465 21.2169 133.258 27.423 125.603 27.423C117.947 27.423 111.741 21.2169 111.741 13.5613V3.14189Z" stroke="#590100" stroke-width="0.4"/>
<path d="M92.8777 3.16016L155.303 3.16016V0.209879L92.8777 0.209879V3.16016Z" stroke="#590100" stroke-width="0.5" stroke-miterlimit="10"/>
<path d="M1.44114 240.161H82.2355C82.3331 240.161 82.4299 240.18 82.5201 240.217C82.6104 240.254 82.6924 240.308 82.7615 240.377C82.8305 240.445 82.8853 240.527 82.9227 240.616C82.9601 240.706 82.9793 240.802 82.9793 240.898V243.909H0.697266V240.898C0.697266 240.802 0.716507 240.706 0.75389 240.616C0.791273 240.527 0.846067 240.445 0.915143 240.377C0.984218 240.308 1.06622 240.254 1.15647 240.217C1.24673 240.18 1.34346 240.161 1.44114 240.161Z" stroke="#590100" stroke-width="0.5" stroke-miterlimit="10"/>
<path d="M32.4109 240.161V31.3684L51.2508 50.0485V240.161H32.4109Z" stroke="#590100" stroke-width="0.5" stroke-miterlimit="10"/>
<path d="M139.484 31.3684H32.3806L51.2508 50.0485H139.484V31.3684Z" stroke="#590100" stroke-width="0.5" stroke-miterlimit="10"/>
<path d="M117.684 50.8313H132.986V52.2011C132.986 52.8797 132.714 53.5306 132.23 54.0105C131.746 54.4904 131.09 54.76 130.405 54.76H120.264C119.58 54.76 118.923 54.4904 118.439 54.0105C117.955 53.5306 117.684 52.8797 117.684 52.2011V50.8313Z" stroke="#590100" stroke-width="0.5" stroke-miterlimit="10"/>
</g>
<defs>
<clipPath id="clip0_4162_12">
<rect width="210" height="89" fill="white" transform="translate(83.5 95.0293)"/>
</clipPath>
<clipPath id="clip1_4162_12">
<rect width="155" height="244" fill="white" transform="translate(0.5 0.0292969)"/>
</clipPath>
</defs>
</svg>
