<svg width="533" height="317" viewBox="0 0 533 317" fill="none" xmlns="http://www.w3.org/2000/svg">
<rect x="21.8496" y="33.3948" width="321.05" height="217.461" stroke="#590100"/>
<rect x="0.878906" y="1.2207" width="362.651" height="314.412" stroke="#590100"/>
<circle cx="182.204" cy="146.125" r="49.5057" fill="#E22126"/>
<path d="M165.449 19.7693H200.157" stroke="#590100" stroke-width="2"/>
<path d="M206.658 146.125L169.978 167.302L169.978 124.947L206.658 146.125Z" fill="white"/>
<rect x="171.91" y="276.202" width="20.9303" height="20.9303" fill="#DEDEDE" stroke="#590100"/>
<rect x="343.159" y="127.023" width="188.609" height="188.609" fill="white" stroke="#590100"/>
<rect x="343.159" y="126.406" width="188.609" height="52.9319" fill="#DEDEDE" stroke="#590100"/>
<rect x="474.156" y="110.932" width="13.0856" height="32.2778" fill="#E22126"/>
<rect x="387.897" y="110.932" width="13.0856" height="32.2778" fill="#E22126"/>
<path d="M425.232 229.166H459.044L436.375 274.888" stroke="#590100"/>
<path d="M407.064 209.705V218.951H416.311" stroke="#590100"/>
<path d="M396.467 248.355C396.467 273.579 416.915 294.027 442.138 294.027C467.362 294.027 487.81 273.579 487.81 248.355C487.81 223.132 467.362 202.684 442.138 202.684C428.098 202.684 415.538 209.019 407.16 218.987" stroke="#590100"/>
</svg>
