<svg width="336" height="336" viewBox="0 0 336 336" fill="none" xmlns="http://www.w3.org/2000/svg">
<circle cx="168" cy="168" r="123.661" stroke="#DDDDDD"/>
<circle cx="168" cy="168" r="166.75" stroke="#AEAEAE" stroke-width="1.5"/>
<path d="M22.9672 156.776L15.3761 156.055L15.6233 153.454C15.7051 152.593 15.9737 151.956 16.4292 151.54C16.8775 151.123 17.4571 150.949 18.1679 151.017C18.8787 151.084 19.4185 151.365 19.7876 151.859C20.1495 152.352 20.2896 153.029 20.2078 153.889L20.0538 155.51L23.0604 155.795L22.9672 156.776ZM16.4692 153.609L16.3223 155.155L19.2009 155.429L19.3478 153.883C19.4019 153.314 19.318 152.876 19.0962 152.568C18.8681 152.252 18.5265 152.073 18.0716 152.029C17.6167 151.986 17.251 152.099 16.9746 152.366C16.6917 152.626 16.5232 153.041 16.4692 153.609Z" fill="black"/>
<path d="M23.6545 150.058L16.105 148.986L16.4452 146.59C16.5717 145.699 16.8427 145.06 17.2584 144.672C17.6741 144.283 18.2106 144.136 18.868 144.229C19.3487 144.298 19.7401 144.487 20.0423 144.796C20.3445 145.106 20.5139 145.487 20.5507 145.939L20.5719 145.942C20.6958 145.679 20.8678 145.483 21.0878 145.356C21.3078 145.228 21.6632 145.113 22.1538 145.01L24.4374 144.544L24.2868 145.605L22.1956 146.011C21.7211 146.102 21.3839 146.242 21.1842 146.43C20.9854 146.611 20.8574 146.902 20.8002 147.305L20.612 148.631L23.793 149.082L23.6545 150.058ZM17.2723 146.783L17.0811 148.129L19.785 148.513L19.9852 147.103C20.0655 146.538 19.9975 146.102 19.7811 145.798C19.5587 145.485 19.2319 145.298 18.8007 145.237C17.9454 145.115 17.4359 145.631 17.2723 146.783Z" fill="black"/>
<path d="M18.2477 141.068C17.6676 140.32 17.4805 139.424 17.6866 138.381C17.8926 137.337 18.406 136.58 19.2268 136.108C20.0476 135.637 21.0534 135.519 22.2441 135.754C23.4349 135.989 24.3204 136.481 24.9005 137.229C25.4807 137.976 25.6677 138.872 25.4617 139.916C25.2556 140.959 24.7422 141.717 23.9214 142.188C23.1006 142.659 22.0949 142.777 20.9041 142.542C19.7133 142.307 18.8279 141.815 18.2477 141.068ZM18.5692 138.555C18.4239 139.29 18.5788 139.925 19.0338 140.459C19.4888 140.992 20.1786 141.351 21.1032 141.533C22.0278 141.716 22.802 141.647 23.4257 141.326C24.0494 141.005 24.4339 140.477 24.5791 139.741C24.7229 139.013 24.5673 138.382 24.1123 137.848C23.6517 137.306 22.9626 136.944 22.045 136.763C21.1274 136.582 20.3561 136.655 19.731 136.983C19.1002 137.302 18.713 137.826 18.5692 138.555Z" fill="black"/>
<path d="M20.18 128.232L21.032 128.445L20.1132 132.123L22.638 132.754L23.4997 129.304L24.3518 129.517L23.49 132.966L26.6591 133.758L26.4203 134.714L19.0223 132.866L20.18 128.232Z" fill="black"/>
<path d="M22.2886 121.106L23.129 121.361L21.9883 125.122L24.2942 125.822L25.3697 122.276L26.1998 122.527L25.1244 126.073L27.6046 126.826L28.7795 122.952L29.6199 123.206L28.159 128.023L20.8619 125.81L22.2886 121.106Z" fill="black"/>
<path d="M23.5189 117.064C24.1262 115.347 25.2174 114.768 26.7924 115.325L26.4602 116.264C25.4169 115.895 24.7011 116.259 24.3129 117.356C24.1557 117.8 24.1329 118.186 24.2443 118.513C24.3581 118.834 24.5866 119.055 24.9299 119.176C25.2866 119.302 25.5944 119.267 25.8532 119.071C26.1119 118.875 26.4364 118.482 26.8266 117.893C27.0217 117.599 27.1852 117.361 27.3173 117.181C27.4493 117 27.6142 116.812 27.812 116.617C28.0098 116.422 28.2019 116.286 28.3885 116.208C28.5684 116.128 28.7849 116.083 29.038 116.074C29.2843 116.063 29.5522 116.108 29.8416 116.211C30.4878 116.439 30.9193 116.857 31.1363 117.464C31.3556 118.064 31.3271 118.755 31.0509 119.536C30.7508 120.384 30.302 120.967 29.7045 121.286C29.107 121.604 28.3977 121.619 27.5765 121.328L27.9159 120.369C28.4948 120.574 28.9825 120.576 29.3791 120.375C29.769 120.173 30.0616 119.795 30.2568 119.243C30.4378 118.732 30.4661 118.299 30.3416 117.944C30.2195 117.583 29.9566 117.331 29.5527 117.188C29.1825 117.057 28.8714 117.091 28.6194 117.289C28.3673 117.488 28.0405 117.887 27.6388 118.487C27.4762 118.733 27.3371 118.933 27.2213 119.089C27.1055 119.245 26.9703 119.413 26.8157 119.593C26.6635 119.767 26.5143 119.899 26.3681 119.992C26.2243 120.077 26.0648 120.153 25.8897 120.22C25.7078 120.284 25.5165 120.311 25.3157 120.301C25.1106 120.281 24.8903 120.23 24.6547 120.146C24.0691 119.939 23.6708 119.556 23.4597 118.997C23.242 118.435 23.2617 117.79 23.5189 117.064Z" fill="black"/>
<path d="M26.0066 110.501C26.6911 108.814 27.8075 108.284 29.3556 108.912L28.9811 109.835C27.9556 109.419 27.2241 109.75 26.7865 110.829C26.6093 111.265 26.569 111.65 26.6654 111.982C26.7646 112.307 26.9828 112.538 27.3202 112.675C27.6709 112.817 27.9799 112.796 28.2473 112.612C28.5147 112.428 28.8567 112.05 29.2732 111.479C29.4814 111.194 29.6556 110.964 29.7957 110.79C29.9358 110.616 30.109 110.436 30.3155 110.25C30.5219 110.064 30.7201 109.936 30.91 109.867C31.0934 109.795 31.3116 109.76 31.5648 109.763C31.8115 109.763 32.077 109.82 32.3615 109.936C32.9966 110.193 33.4087 110.63 33.5979 111.246C33.7898 111.856 33.73 112.544 33.4186 113.312C33.0803 114.145 32.6055 114.708 31.9942 114.999C31.3828 115.291 30.6736 115.272 29.8665 114.945L30.249 114.002C30.818 114.233 31.3051 114.257 31.7104 114.075C32.1091 113.89 32.4185 113.526 32.6386 112.984C32.8427 112.481 32.8906 112.05 32.7823 111.69C32.6767 111.323 32.4255 111.06 32.0285 110.899C31.6647 110.751 31.3523 110.771 31.0915 110.958C30.8307 111.145 30.4861 111.529 30.0576 112.11C29.8841 112.348 29.7359 112.542 29.6132 112.692C29.4905 112.843 29.3478 113.005 29.1852 113.177C29.0252 113.344 28.8702 113.47 28.7199 113.555C28.5723 113.634 28.4096 113.703 28.2316 113.761C28.0471 113.817 27.8547 113.836 27.6546 113.816C27.4506 113.787 27.2328 113.726 27.0012 113.632C26.4257 113.398 26.0452 112.997 25.8597 112.429C25.6677 111.858 25.7166 111.215 26.0066 110.501Z" fill="black"/>
<path d="M28.4508 105.169L35.4153 108.274L35.0141 109.174L28.0496 106.069L28.4508 105.169Z" fill="black"/>
<path d="M30.5959 102.685C30.2325 101.811 30.2872 100.898 30.7601 99.9449C31.233 98.992 31.9273 98.396 32.843 98.1569C33.7586 97.9179 34.7601 98.0682 35.8474 98.6077C36.9346 99.1473 37.6599 99.8539 38.0234 100.728C38.3868 101.602 38.3321 102.515 37.8592 103.468C37.3863 104.421 36.692 105.017 35.7763 105.256C34.8606 105.495 33.8592 105.345 32.7719 104.805C31.6847 104.265 30.9593 103.559 30.5959 102.685ZM31.5659 100.345C31.2327 101.016 31.2155 101.669 31.5143 102.304C31.8132 102.938 32.3847 103.465 33.229 103.884C34.0732 104.303 34.8383 104.44 35.5244 104.294C36.2104 104.148 36.7201 103.739 37.0533 103.068C37.3834 102.403 37.399 101.753 37.1002 101.118C36.7981 100.474 36.2281 99.9444 35.3903 99.5287C34.5525 99.1129 33.789 98.9811 33.0997 99.1332C32.4073 99.2758 31.896 99.6797 31.5659 100.345Z" fill="black"/>
<path d="M36.4611 89.7344L43.0914 93.5006L42.372 94.7671L38.6192 94.7169C37.2129 94.7064 35.9194 94.6778 34.7388 94.6313L34.7282 94.6499C35.8004 95.2343 36.8642 95.8262 37.9195 96.4257L40.5735 97.9332L40.0975 98.7713L33.4672 95.0052L34.1813 93.748L37.9393 93.7888C39.4378 93.8107 40.7313 93.8392 41.8197 93.8745L41.8303 93.8559C40.7582 93.2715 39.6944 92.6796 38.639 92.0801L35.985 90.5725L36.4611 89.7344Z" fill="black"/>
<path d="M47.1233 87.1534L44.7679 86.6174L42.9471 89.4446L44.4037 91.3763L43.8354 92.2587L38.9902 85.6989L39.7151 84.5734L47.6974 86.262L47.1233 87.1534ZM42.386 88.7138L43.8647 86.4178L43.146 86.248C41.8958 85.9608 40.8263 85.7094 39.9376 85.4938L39.926 85.5118C40.49 86.2316 41.1613 87.1013 41.9399 88.1208L42.386 88.7138Z" fill="black"/>
<path d="M42.8576 79.9321L48.3487 83.8528L50.6139 80.6802L51.3287 81.1905L48.4908 85.1649L42.2851 80.7339L42.8576 79.9321Z" fill="black"/>
<path d="M49.6372 70.7843C50.2026 70.0938 50.8532 69.6992 51.5892 69.6004C52.3252 69.5017 53.0189 69.6914 53.6703 70.1693L53.0257 70.9565C52.5577 70.6379 52.0812 70.5154 51.5964 70.5891C51.1162 70.6572 50.6951 70.9123 50.3332 71.3542C49.8764 71.9122 49.7295 72.5255 49.8926 73.1942C50.0546 73.8529 50.503 74.483 51.2377 75.0845C51.9725 75.6861 52.6814 76.0036 53.3646 76.037C54.0423 76.0658 54.605 75.8068 55.0528 75.2599C55.4101 74.8235 55.5765 74.3553 55.5521 73.8555C55.5277 73.3556 55.3166 72.8921 54.9189 72.465L55.5702 71.6695C56.1833 72.273 56.5091 72.9458 56.5476 73.6878C56.5805 74.4252 56.3142 75.1392 55.7489 75.8298C55.1021 76.6198 54.3175 77.0201 53.3952 77.0309C52.4729 77.0416 51.5366 76.658 50.5864 75.88C49.6362 75.1021 49.0754 74.2599 48.9039 73.3536C48.7369 72.4418 48.9813 71.5854 49.6372 70.7843Z" fill="black"/>
<path d="M62.2122 68.2197L59.9769 67.304L57.7164 69.7937L58.8358 71.9384L58.1303 72.7155L54.4285 65.4489L55.3284 64.4577L62.9249 67.4347L62.2122 68.2197ZM57.2829 68.9807L59.1187 66.9587L58.4377 66.6732C57.2516 66.1845 56.2379 65.7608 55.3967 65.4021L55.3823 65.418C55.8204 66.2207 56.3397 67.1889 56.9403 68.3224L57.2829 68.9807Z" fill="black"/>
<path d="M64.3967 55.2955L69.7144 60.7606L69.0236 61.4328L66.3199 58.6542C65.8718 58.1936 65.1997 57.4927 64.3038 56.5515L64.2884 56.5664C64.5289 57.0695 64.9579 58.007 65.5754 59.3786L67.2658 63.1431L66.4522 63.9348L62.7354 62.1421C61.386 61.4925 60.4607 61.038 59.9593 60.7787L59.944 60.7937C60.8604 61.715 61.5427 62.406 61.9908 62.8665L64.6945 65.6451L64.0037 66.3173L58.686 60.8522L59.822 59.7468L63.4336 61.4775C64.3514 61.9294 65.2716 62.3938 66.1941 62.871L66.2095 62.856C65.7577 61.9208 65.3186 60.9883 64.892 60.0585L63.253 56.4083L64.3967 55.2955Z" fill="black"/>
<path d="M70.2523 50.2025L70.8271 50.8664L67.8556 53.439L69.4328 55.2608L72.2343 52.8354L72.8021 53.4912L70.0006 55.9167L71.697 57.8761L74.7576 55.2263L75.3324 55.8902L71.527 59.1849L66.5359 53.42L70.2523 50.2025Z" fill="black"/>
<path d="M76.6703 54.8135L71.9569 48.8194L73.8596 47.3233C74.5668 46.7672 75.2047 46.4927 75.7733 46.4997C76.3419 46.5067 76.8315 46.7712 77.2419 47.2932C77.542 47.6748 77.6941 48.082 77.6983 48.5147C77.7025 48.9474 77.5615 49.3398 77.2753 49.692L77.2885 49.7088C77.5604 49.6041 77.8198 49.5817 78.0668 49.6418C78.3139 49.7018 78.6504 49.8641 79.0764 50.1286L81.048 51.3712L80.2061 52.0332L78.4144 50.8808C78.0085 50.6186 77.6684 50.4864 77.3941 50.4841C77.1254 50.4774 76.8311 50.5998 76.5112 50.8514L75.4588 51.6789L77.4448 54.2045L76.6703 54.8135ZM74.3236 48.0347L73.2544 48.8754L74.9425 51.0222L76.0622 50.1418C76.5112 49.7887 76.7629 49.4273 76.8173 49.0576C76.8729 48.6778 76.7661 48.3167 76.4969 47.9743C75.9629 47.2952 75.2385 47.3154 74.3236 48.0347Z" fill="black"/>
<path d="M86.444 47.5351L84.4599 46.1573L81.7141 48.0987L82.3427 50.4349L81.4857 51.0408L79.4447 43.1451L80.5378 42.3723L87.3097 46.9231L86.444 47.5351ZM81.4669 47.2111L83.6968 45.6345L83.0938 45.2083C82.0416 44.4745 81.1437 43.8414 80.4001 43.3091L80.3826 43.3215C80.6365 44.2 80.9339 45.2576 81.2749 46.4943L81.4669 47.2111Z" fill="black"/>
<path d="M87.7518 37.6155L91.2772 43.3683L94.601 41.3314L95.0599 42.0802L90.8959 44.6319L86.9117 38.1303L87.7518 37.6155Z" fill="black"/>
<path d="M96.7573 32.4163L97.1829 33.1845L93.7447 35.0892L94.9124 37.197L98.1538 35.4014L98.5742 36.1602L95.3328 37.9558L96.5887 40.223L100.13 38.2613L100.555 39.0295L96.1524 41.4686L92.4573 34.7984L96.7573 32.4163Z" fill="black"/>
<path d="M104.262 28.6862L107.609 35.5375L106.3 36.1769L103.231 34.0173C102.076 33.2147 101.024 32.4611 100.076 31.7563L100.057 31.7657C100.612 32.8532 101.156 33.9423 101.689 35.0329L103.029 37.7753L102.163 38.1984L98.8152 31.3471L100.114 30.7124L103.193 32.8674C104.418 33.7312 105.47 34.4849 106.348 35.1284L106.367 35.119C105.812 34.0314 105.268 32.9424 104.735 31.8518L103.396 29.1093L104.262 28.6862Z" fill="black"/>
<path d="M108.566 26.6527C110.241 25.939 111.406 26.3507 112.061 27.8877L111.145 28.2781C110.711 27.26 109.959 26.9791 108.888 27.4352C108.454 27.6199 108.155 27.864 107.989 28.1674C107.83 28.468 107.822 28.7858 107.965 29.1208C108.113 29.4689 108.347 29.6719 108.666 29.7298C108.986 29.7876 109.495 29.761 110.192 29.65C110.541 29.5945 110.827 29.5543 111.049 29.5295C111.271 29.5047 111.521 29.4991 111.799 29.5128C112.076 29.5265 112.307 29.5758 112.49 29.6605C112.671 29.7387 112.85 29.868 113.028 30.0484C113.203 30.2222 113.351 30.4503 113.471 30.7328C113.74 31.3633 113.724 31.9638 113.423 32.5341C113.13 33.1016 112.602 33.5476 111.84 33.8723C111.012 34.2249 110.279 34.289 109.64 34.0645C109.001 33.84 108.511 33.3271 108.17 32.5257L109.106 32.1269C109.346 32.6918 109.675 33.0525 110.091 33.209C110.504 33.359 110.98 33.3192 111.518 33.0897C112.017 32.877 112.355 32.6049 112.532 32.2734C112.716 31.9391 112.724 31.5749 112.556 31.1808C112.402 30.8196 112.167 30.6133 111.85 30.562C111.533 30.5107 111.018 30.5401 110.304 30.6501C110.013 30.6964 109.772 30.7296 109.578 30.7498C109.385 30.77 109.17 30.7841 108.933 30.792C108.702 30.7972 108.503 30.7771 108.337 30.7317C108.176 30.6836 108.013 30.6176 107.845 30.5338C107.674 30.4434 107.525 30.3208 107.397 30.1658C107.273 30.0015 107.162 29.8044 107.064 29.5745C106.82 29.003 106.833 28.4504 107.102 27.9166C107.369 27.3762 107.857 26.9549 108.566 26.6527Z" fill="black"/>
<path d="M290.785 261.4L290.113 260.903L292.056 258.277L290.384 256.773L290.371 256.791C290.489 257.304 290.361 257.813 289.987 258.318C289.567 258.886 289.056 259.21 288.456 259.29C287.856 259.38 287.267 259.21 286.687 258.781C286.073 258.327 285.72 257.777 285.629 257.133C285.533 256.493 285.713 255.867 286.167 255.253C286.592 254.679 287.08 254.33 287.634 254.206C288.183 254.088 288.713 254.218 289.224 254.596L288.625 255.406C288.316 255.186 288.004 255.111 287.687 255.178C287.366 255.252 287.089 255.446 286.856 255.762C286.58 256.135 286.476 256.516 286.544 256.904C286.618 257.296 286.859 257.643 287.266 257.944C287.663 258.237 288.051 258.36 288.432 258.314C288.809 258.272 289.131 258.071 289.398 257.71C289.836 257.118 289.835 256.549 289.396 256.002L290.027 255.257L293.218 258.11L290.785 261.4Z" fill="black"/>
<path d="M288.482 264.569C288.044 265.115 287.542 265.444 286.976 265.558C286.411 265.681 285.899 265.56 285.442 265.194C285.142 264.953 284.954 264.656 284.879 264.303C284.801 263.957 284.825 263.583 284.954 263.183L284.937 263.17C284.55 263.436 284.161 263.568 283.769 263.565C283.384 263.567 283.018 263.43 282.672 263.153C282.182 262.76 281.934 262.259 281.928 261.65C281.917 261.047 282.146 260.453 282.615 259.868C283.083 259.283 283.613 258.93 284.204 258.809C284.795 258.687 285.336 258.823 285.826 259.216C286.172 259.493 286.386 259.82 286.468 260.197C286.556 260.578 286.514 260.984 286.343 261.414L286.36 261.428C286.723 261.215 287.082 261.109 287.437 261.111C287.799 261.117 288.127 261.238 288.422 261.474C288.879 261.84 289.111 262.31 289.119 262.883C289.127 263.466 288.915 264.028 288.482 264.569ZM284.339 262.649C284.702 262.583 285.025 262.375 285.306 262.024C285.587 261.673 285.722 261.31 285.711 260.936C285.702 260.571 285.549 260.27 285.254 260.034C284.947 259.788 284.612 259.698 284.249 259.764C283.891 259.834 283.569 260.047 283.283 260.404C282.998 260.76 282.86 261.121 282.869 261.485C282.885 261.855 283.046 262.162 283.352 262.407C283.647 262.644 283.976 262.724 284.339 262.649ZM286.935 264.633C287.263 264.566 287.558 264.368 287.822 264.04C288.085 263.711 288.214 263.379 288.207 263.045C288.201 262.71 288.061 262.434 287.788 262.215C287.498 261.983 287.189 261.895 286.86 261.952C286.526 262.014 286.226 262.212 285.958 262.546C285.69 262.881 285.564 263.215 285.581 263.548C285.593 263.887 285.744 264.173 286.033 264.405C286.306 264.623 286.607 264.699 286.935 264.633Z" fill="black"/>
<path d="M280.398 271.232C280.007 271.669 279.569 271.88 279.083 271.867C278.592 271.859 278.078 271.615 277.54 271.135L275.033 268.894L275.661 268.191L278.112 270.382C278.858 271.048 279.478 271.104 279.973 270.551C280.234 270.258 280.329 269.921 280.257 269.541C280.181 269.166 279.948 268.805 279.559 268.458L277.26 266.402L277.888 265.7L280.443 267.983C280.762 268.269 281.074 268.418 281.378 268.432C281.688 268.45 281.959 268.328 282.192 268.067C282.459 267.769 282.553 267.428 282.476 267.043C282.394 266.663 282.148 266.29 281.738 265.924L279.486 263.911L280.114 263.208L284.171 266.834L283.564 267.512L283.061 267.063L283.047 267.079C283.184 267.718 283.043 268.272 282.624 268.741C282.101 269.326 281.486 269.5 280.78 269.261C281.034 270.006 280.907 270.663 280.398 271.232Z" fill="black"/>
<path d="M273.064 278.683C272.644 279.092 272.193 279.272 271.709 279.226C271.219 279.184 270.723 278.905 270.22 278.388L267.873 275.98L268.548 275.322L270.843 277.677C271.54 278.393 272.155 278.492 272.687 277.974C272.968 277.7 273.086 277.371 273.04 276.986C272.99 276.607 272.783 276.231 272.419 275.857L270.266 273.648L270.941 272.99L273.333 275.445C273.632 275.752 273.933 275.922 274.235 275.957C274.543 275.996 274.822 275.894 275.072 275.649C275.359 275.37 275.477 275.036 275.426 274.647C275.371 274.262 275.151 273.873 274.767 273.479L272.66 271.316L273.335 270.659L277.131 274.555L276.479 275.191L276.009 274.707L275.993 274.722C276.086 275.37 275.907 275.913 275.457 276.351C274.894 276.899 274.269 277.03 273.581 276.743C273.783 277.503 273.611 278.15 273.064 278.683Z" fill="black"/>
<path d="M256.539 293.904L252.37 288.011L253.166 287.449L256.203 291.741L257.523 290.807L257.956 291.419C257.496 291.745 257.211 292.06 257.103 292.364C256.989 292.672 257.028 293.025 257.221 293.421L256.539 293.904Z" fill="black"/>
<path d="M249.377 291.555L248.685 290.51L249.649 289.871L250.341 290.916L249.377 291.555ZM251.689 295.046L250.997 294.001L251.961 293.363L252.653 294.408L251.689 295.046Z" fill="black"/>
<path d="M248.531 299.155L244.733 293.017L245.561 292.504L248.328 296.976L249.703 296.125L250.098 296.762C249.618 297.059 249.315 297.356 249.188 297.653C249.055 297.953 249.073 298.308 249.241 298.716L248.531 299.155Z" fill="black"/>
<path d="M241.574 296.341L240.948 295.255L241.949 294.677L242.576 295.763L241.574 296.341Z" fill="black"/>
<path d="M240.996 303.65C240.385 303.978 239.807 304.077 239.26 303.95C238.717 303.828 238.302 303.5 238.015 302.965C237.869 302.694 237.78 302.43 237.747 302.173C237.708 301.918 237.727 301.652 237.806 301.375C237.887 301.105 237.984 300.854 238.095 300.624C238.204 300.404 238.361 300.13 238.565 299.801C238.986 299.121 239.233 298.6 239.306 298.237C239.375 297.883 239.329 297.548 239.166 297.23L235.731 299.073L235.331 298.328L239.719 295.973C239.749 296.013 239.786 296.075 239.83 296.156C240.171 296.792 240.325 297.374 240.293 297.902C240.257 298.439 239.98 299.131 239.461 299.976C239.086 300.591 238.851 301.066 238.755 301.401C238.663 301.742 238.714 302.095 238.91 302.46C239.076 302.768 239.313 302.961 239.622 303.038C239.928 303.125 240.254 303.076 240.6 302.89C241.374 302.475 241.563 301.839 241.167 300.981L242.055 300.505C242.367 301.148 242.429 301.746 242.241 302.301C242.046 302.86 241.631 303.309 240.996 303.65Z" fill="black"/>
</svg>
