<svg width="87" height="104" viewBox="0 0 87 104" fill="none" xmlns="http://www.w3.org/2000/svg">
<path d="M5.41667 100.967C5.41667 99.4945 4.22276 98.3006 2.75 98.3006C1.27724 98.3006 0.0833359 99.4945 0.0833359 100.967C0.0833359 102.44 1.27724 103.634 2.75 103.634C4.22276 103.634 5.41667 102.44 5.41667 100.967ZM75.085 100.967V101.467H75.231L75.354 101.389L75.085 100.967ZM86.4167 2.96729C86.4167 1.49452 85.2228 0.300613 83.75 0.300613C82.2772 0.300613 81.0833 1.49452 81.0833 2.96729C81.0833 4.44004 82.2772 5.63395 83.75 5.63395C85.2228 5.63395 86.4167 4.44004 86.4167 2.96729ZM83.75 95.435L84.0191 95.8565L84.25 95.709V95.435H83.75ZM2.75 101.467L75.085 101.467V100.467L2.75 100.467V101.467ZM75.354 101.389L84.0191 95.8565L83.4809 95.0136L74.8159 100.546L75.354 101.389ZM84.25 95.435L84.25 2.96729H83.25L83.25 95.435H84.25Z" fill="#E22126"/>
</svg>
