<svg width="409" height="54" viewBox="0 0 409 54" fill="none" xmlns="http://www.w3.org/2000/svg">
<path d="M403.511 2.84082C403.511 4.31358 404.705 5.50749 406.177 5.50749C407.65 5.50749 408.844 4.31358 408.844 2.84082C408.844 1.36806 407.65 0.174154 406.177 0.174154C404.705 0.174154 403.511 1.36806 403.511 2.84082ZM20.5 2.84082V2.34082H20.3206L20.1821 2.45486L20.5 2.84082ZM0.833333 50.8408C0.833333 52.3136 2.02724 53.5075 3.5 53.5075C4.97276 53.5075 6.16667 52.3136 6.16667 50.8408C6.16667 49.3681 4.97276 48.1742 3.5 48.1742C2.02724 48.1742 0.833333 49.3681 0.833333 50.8408ZM3.5 16.8408L3.18215 16.4549L3 16.6049V16.8408H3.5ZM406.177 2.34082H20.5V3.34082H406.177V2.34082ZM20.1821 2.45486L3.18215 16.4549L3.81785 17.2268L20.8179 3.22679L20.1821 2.45486ZM3 16.8408V50.8408H4V16.8408H3Z" fill="#E22126"/>
</svg>
