<svg width="412" height="436" viewBox="0 0 412 436" fill="none" xmlns="http://www.w3.org/2000/svg">
<g clip-path="url(#clip0_2221_3689)">
<path d="M278.709 77.6888H132.123C111.776 77.6888 95.2812 94.4273 95.2812 115.075V229.046C95.2812 249.694 111.776 266.433 132.123 266.433H278.709C299.056 266.433 315.55 249.694 315.55 229.046V115.075C315.55 94.4273 299.056 77.6888 278.709 77.6888Z" fill="#D9D9D9" stroke="#590100" stroke-width="0.5" stroke-miterlimit="10"/>
<path d="M21.7933 63.2284L89.7307 13.1273C92.0999 11.5127 94.7236 10.3207 97.4884 9.60275C99.8486 8.97303 102.289 8.70654 104.727 8.8122C110.797 9.04277 193.503 8.9769 308.149 8.8122C311.731 8.63947 315.304 9.29266 318.601 10.7227C320.171 11.4266 321.662 12.299 323.048 13.3249L398.257 71.3315C398.722 71.8181 399.156 72.3353 399.555 72.8797C400.009 73.4824 400.432 74.1092 400.821 74.7572C402.495 78.414 403.591 82.3159 404.067 86.319C403.807 141.57 403.537 196.809 403.255 252.038C403.253 255.555 402.541 259.035 401.164 262.263C399.786 265.49 397.771 268.397 395.244 270.804C392.717 273.211 389.73 275.068 386.469 276.259C383.208 277.45 379.741 277.951 376.282 277.731C188.667 278.423 51.4936 278.324 33.6409 277.731C27.6245 277.774 21.7614 275.806 16.9568 272.131C13.8585 269.339 11.4357 265.86 9.87637 261.964C8.31708 258.068 7.66325 253.86 7.9656 249.666C7.83576 161.092 7.86822 96.3656 8.06298 86.4837C8.11781 83.979 8.52216 81.4948 9.26397 79.1053C11.4445 72.4679 15.8873 66.8381 21.7933 63.2284Z" stroke="#590100" stroke-width="0.5" stroke-miterlimit="10"/>
<path d="M411.111 81.5098C410.459 77.3836 409.303 73.3558 407.67 69.5198C407.313 68.9269 406.923 68.3999 406.923 68.3999C406.352 67.5546 405.723 66.7512 405.041 65.9953L327.138 6.07822C325.745 5.01805 324.243 4.11253 322.659 3.37717C319.218 1.83881 315.477 1.11778 311.72 1.26904C193.049 1.43374 107.421 1.49962 101.124 1.26904C95.601 1.02246 90.1473 2.5938 85.576 5.74882L15.3016 57.5957C9.21165 61.2887 4.61073 67.0549 2.31783 73.8679C1.54966 76.3435 1.12363 78.9154 1.05191 81.5098C0.857156 91.9517 0.857156 158.951 1.08437 250.589C1.06166 250.896 1.06166 251.204 1.08437 251.511C1.10674 252.352 1.41188 253.16 1.94914 253.802C2.48641 254.443 3.22352 254.878 4.03817 255.036C4.52862 255.071 5.02122 255.009 5.48766 254.851C5.9541 254.693 6.3852 254.443 6.75619 254.115C7.12718 253.788 7.43076 253.389 7.64947 252.942C7.86818 252.495 7.99773 252.009 8.03067 251.511V250.325C8.03067 250.029 8.03067 249.798 8.03067 249.666C7.83591 161.092 7.86837 96.3656 8.09559 86.4837C8.13349 83.9774 8.53825 81.4908 9.29658 79.1053C11.5155 72.5331 15.9385 66.9604 21.7934 63.3601L89.7308 13.1273C94.1386 10.082 99.4001 8.56803 104.727 8.8122C110.797 9.00984 193.503 8.8122 308.15 8.8122C313.529 8.53699 318.834 10.18 323.146 13.4567L398.289 71.3315C402.071 75.4431 404.171 80.8596 404.164 86.4837C403.905 141.559 403.667 196.623 403.45 251.676C403.606 252.363 403.952 252.991 404.446 253.486C404.94 253.982 405.563 254.325 406.242 254.476C407.193 254.627 408.165 254.409 408.965 253.866C409.765 253.323 410.334 252.494 410.559 251.544L411.111 81.5098Z" fill="#D9D9D9" stroke="#590100" stroke-width="0.5" stroke-miterlimit="10"/>
<path d="M61.444 183.313C67.6284 183.313 72.6417 178.285 72.6417 172.084C72.6417 165.882 67.6284 160.854 61.444 160.854C55.2597 160.854 50.2463 165.882 50.2463 172.084C50.2463 178.285 55.2597 183.313 61.444 183.313Z" fill="#D9D9D9" stroke="#590100" stroke-width="0.5" stroke-miterlimit="10"/>
<path d="M349.263 183.313C355.447 183.313 360.46 178.285 360.46 172.084C360.46 165.882 355.447 160.854 349.263 160.854C343.078 160.854 338.065 165.882 338.065 172.084C338.065 178.285 343.078 183.313 349.263 183.313Z" fill="#D9D9D9" stroke="#590100" stroke-width="0.5" stroke-miterlimit="10"/>
<path d="M205.416 263.797C255.342 263.797 295.815 222.725 295.815 172.061C295.815 121.396 255.342 80.324 205.416 80.324C155.49 80.324 115.017 121.396 115.017 172.061C115.017 222.725 155.49 263.797 205.416 263.797Z" fill="#FDFDFD" stroke="#590100" stroke-width="0.5" stroke-miterlimit="10"/>
<path d="M205.416 259.976C253.262 259.976 292.05 220.615 292.05 172.061C292.05 123.506 253.262 84.145 205.416 84.145C157.569 84.145 118.782 123.506 118.782 172.061C118.782 220.615 157.569 259.976 205.416 259.976Z" stroke="#590100" stroke-width="0.5" stroke-miterlimit="10"/>
<path d="M205.416 252.73C249.318 252.73 284.909 216.613 284.909 172.061C284.909 127.508 249.318 91.3917 205.416 91.3917C161.513 91.3917 125.923 127.508 125.923 172.061C125.923 216.613 161.513 252.73 205.416 252.73Z" stroke="#590100" stroke-width="0.5" stroke-miterlimit="10"/>
<path d="M205.416 240.279C242.542 240.279 272.639 209.736 272.639 172.061C272.639 134.385 242.542 103.843 205.416 103.843C168.289 103.843 138.192 134.385 138.192 172.061C138.192 209.736 168.289 240.279 205.416 240.279Z" stroke="#590100" stroke-width="0.5" stroke-miterlimit="10"/>
<path d="M205.416 225.555C234.529 225.555 258.13 201.605 258.13 172.061C258.13 142.517 234.529 118.567 205.416 118.567C176.302 118.567 152.702 142.517 152.702 172.061C152.702 201.605 176.302 225.555 205.416 225.555Z" fill="#D9D9D9" stroke="#590100" stroke-width="0.5" stroke-miterlimit="10"/>
<path d="M205.416 199.368C220.277 199.368 232.324 187.142 232.324 172.061C232.324 156.98 220.277 144.754 205.416 144.754C190.554 144.754 178.507 156.98 178.507 172.061C178.507 187.142 190.554 199.368 205.416 199.368Z" fill="white" stroke="#590100" stroke-width="0.5" stroke-miterlimit="10"/>
<path d="M205.416 190.079C215.222 190.079 223.171 182.012 223.171 172.061C223.171 162.11 215.222 154.043 205.416 154.043C195.61 154.043 187.66 162.11 187.66 172.061C187.66 182.012 195.61 190.079 205.416 190.079Z" fill="#E22126"/>
<path d="M250.274 290.182H160.524V349.704H250.274V290.182Z" stroke="#590100" stroke-width="0.5" stroke-miterlimit="10"/>
<path d="M275.301 280.168H135.531V290.182H275.301V280.168Z" fill="#D9D9D9" stroke="#590100" stroke-width="0.5" stroke-miterlimit="10"/>
<path d="M227.196 325.46V349.704H183.635V325.46C183.635 319.598 185.93 313.977 190.015 309.832C194.099 305.687 199.639 303.358 205.416 303.358C211.192 303.358 216.732 305.687 220.817 309.832C224.901 313.977 227.196 319.598 227.196 325.46Z" stroke="#590100" stroke-width="0.5" stroke-miterlimit="10"/>
<path d="M253.942 349.704H156.857C155.53 349.704 154.455 350.795 154.455 352.141V380.634C154.455 381.98 155.53 383.072 156.857 383.072H253.942C255.269 383.072 256.344 381.98 256.344 380.634V352.141C256.344 350.795 255.269 349.704 253.942 349.704Z" fill="#D9D9D9" stroke="#590100" stroke-width="0.5" stroke-miterlimit="10"/>
<path d="M214.31 291.467H196.49V297.165H214.31V291.467Z" stroke="#590100" stroke-width="0.5" stroke-miterlimit="10"/>
<path d="M209.798 297.165H200.969V301.25H209.798V297.165Z" stroke="#590100" stroke-width="0.5" stroke-miterlimit="10"/>
<path d="M205.416 291.467V297.165" stroke="#590100" stroke-width="0.5" stroke-miterlimit="10"/>
<path d="M233.039 384.752H177.76C176.954 384.752 176.3 385.415 176.3 386.234V395.193C176.3 396.012 176.954 396.676 177.76 396.676H233.039C233.845 396.676 234.499 396.012 234.499 395.193V386.234C234.499 385.415 233.845 384.752 233.039 384.752Z" fill="#D9D9D9" stroke="#590100" stroke-width="0.5" stroke-miterlimit="10"/>
<path d="M182.272 396.906H228.429V413.376C228.429 414.119 228.139 414.831 227.621 415.356C227.104 415.881 226.402 416.176 225.67 416.176H185.129C184.397 416.176 183.695 415.881 183.178 415.356C182.66 414.831 182.37 414.119 182.37 413.376V396.906H182.272Z" stroke="#590100" stroke-width="0.5" stroke-miterlimit="10"/>
<path d="M222.652 416.538H188.115V428.627H222.652V416.538Z" stroke="#590100" stroke-width="0.5" stroke-miterlimit="10"/>
<path d="M205.416 428.627V416.538" stroke="#590100" stroke-width="0.5" stroke-miterlimit="10"/>
<path d="M217.069 428.627H193.73V435.412H217.069V428.627Z" stroke="#590100" stroke-width="0.5" stroke-miterlimit="10"/>
<path d="M212.037 321.54H198.729V349.704H212.037V321.54Z" fill="#D9D9D9" stroke="#590100" stroke-width="0.5" stroke-miterlimit="10"/>
<path d="M198.762 333.563H183.635V340.942H198.762V333.563Z" fill="#D9D9D9" stroke="#590100" stroke-width="0.5" stroke-miterlimit="10"/>
<path d="M227.196 333.563H212.07V340.942H227.196V333.563Z" fill="#D9D9D9" stroke="#590100" stroke-width="0.5" stroke-miterlimit="10"/>
</g>
<defs>
<clipPath id="clip0_2221_3689">
<rect width="411" height="435" fill="white" transform="translate(0.5 0.84082)"/>
</clipPath>
</defs>
</svg>
