<svg width="87" height="104" viewBox="0 0 87 104" fill="none" xmlns="http://www.w3.org/2000/svg">
<path d="M81.0833 100.967C81.0833 99.4945 82.2772 98.3006 83.75 98.3006C85.2228 98.3006 86.4167 99.4945 86.4167 100.967C86.4167 102.44 85.2228 103.634 83.75 103.634C82.2772 103.634 81.0833 102.44 81.0833 100.967ZM11.415 100.967V101.467H11.269L11.146 101.389L11.415 100.967ZM0.0833333 2.96729C0.0833333 1.49452 1.27724 0.300613 2.75 0.300613C4.22276 0.300613 5.41667 1.49452 5.41667 2.96729C5.41667 4.44004 4.22276 5.63395 2.75 5.63395C1.27724 5.63395 0.0833333 4.44004 0.0833333 2.96729ZM2.75 95.435L2.48093 95.8565L2.25 95.709V95.435H2.75ZM83.75 101.467L11.415 101.467V100.467L83.75 100.467V101.467ZM11.146 101.389L2.48093 95.8565L3.01907 95.0136L11.6841 100.546L11.146 101.389ZM2.25 95.435L2.25 2.96729H3.25L3.25 95.435H2.25Z" fill="#E22126"/>
</svg>
