<svg width="116" height="164" viewBox="0 0 116 164" fill="none" xmlns="http://www.w3.org/2000/svg">
<path d="M110.239 2.9676C110.239 4.44036 111.433 5.63427 112.906 5.63427C114.379 5.63427 115.573 4.44036 115.573 2.9676C115.573 1.49484 114.379 0.300933 112.906 0.300933C111.433 0.300933 110.239 1.49484 110.239 2.9676ZM11.415 2.96729L11.415 2.46729L11.269 2.46729L11.146 2.54586L11.415 2.96729ZM0.0833328 160.967C0.0833327 162.44 1.27724 163.634 2.75 163.634C4.22276 163.634 5.41667 162.44 5.41667 160.967C5.41667 159.494 4.22276 158.3 2.75 158.3C1.27724 158.3 0.0833329 159.494 0.0833328 160.967ZM2.75 8.49954L2.48093 8.07811L2.25 8.22555L2.25 8.49954L2.75 8.49954ZM112.906 2.4676L11.415 2.46729L11.415 3.46729L112.906 3.4676L112.906 2.4676ZM11.146 2.54586L2.48093 8.07811L3.01907 8.92097L11.6841 3.38872L11.146 2.54586ZM2.25 8.49954L2.25 160.967L3.25 160.967L3.25 8.49954L2.25 8.49954Z" fill="#E22126"/>
</svg>
