<svg width="388" height="54" viewBox="0 0 388 54" fill="none" xmlns="http://www.w3.org/2000/svg">
<path d="M381.833 50.8408C381.833 49.3681 383.027 48.1742 384.5 48.1742C385.973 48.1742 387.167 49.3681 387.167 50.8408C387.167 52.3136 385.973 53.5075 384.5 53.5075C383.027 53.5075 381.833 52.3136 381.833 50.8408ZM20.5 50.8408V51.3408H20.3206L20.1821 51.2268L20.5 50.8408ZM0.833333 2.84082C0.833333 1.36806 2.02724 0.174152 3.5 0.174152C4.97276 0.174152 6.16667 1.36806 6.16667 2.84082C6.16667 4.31358 4.97276 5.50749 3.5 5.50749C2.02724 5.50749 0.833333 4.31358 0.833333 2.84082ZM3.5 36.8408L3.18215 37.2268L3 37.0768V36.8408H3.5ZM384.5 51.3408H20.5V50.3408H384.5V51.3408ZM20.1821 51.2268L3.18215 37.2268L3.81785 36.4549L20.8179 50.4549L20.1821 51.2268ZM3 36.8408V2.84082H4V36.8408H3Z" fill="#E22126"/>
</svg>
