<svg width="117" height="164" viewBox="0 0 117 164" fill="none" xmlns="http://www.w3.org/2000/svg">
<path d="M6.26012 2.96728C6.26012 4.44004 5.06622 5.63395 3.59346 5.63395C2.1207 5.63395 0.926796 4.44004 0.926796 2.96728C0.926796 1.49452 2.1207 0.300618 3.59346 0.300618C5.06622 0.300618 6.26012 1.49453 6.26012 2.96728ZM105.084 2.96728L105.084 2.46728L105.23 2.46728L105.353 2.54585L105.084 2.96728ZM116.417 160.967C116.417 162.44 115.223 163.634 113.75 163.634C112.277 163.634 111.083 162.44 111.083 160.967C111.083 159.495 112.277 158.301 113.75 158.301C115.223 158.301 116.417 159.495 116.417 160.967ZM113.749 8.49954L114.018 8.07811L114.249 8.22555L114.249 8.49954L113.749 8.49954ZM3.59346 2.46728L105.084 2.46728L105.084 3.46728L3.59346 3.46728L3.59346 2.46728ZM105.353 2.54585L114.018 8.07811L113.48 8.92097L104.815 3.38871L105.353 2.54585ZM114.249 8.49954L114.25 160.967L113.25 160.967L113.249 8.49955L114.249 8.49954Z" fill="#E22126"/>
</svg>
