<svg width="388" height="54" viewBox="0 0 388 54" fill="none" xmlns="http://www.w3.org/2000/svg">
<path d="M6.16666 50.8408C6.16666 49.3681 4.97275 48.1742 3.5 48.1742C2.02725 48.1742 0.833344 49.3681 0.833344 50.8408C0.833344 52.3136 2.02725 53.5075 3.5 53.5075C4.97275 53.5075 6.16666 52.3136 6.16666 50.8408ZM367.5 50.8408V51.3408H367.679L367.818 51.2268L367.5 50.8408ZM387.167 2.84082C387.167 1.36806 385.973 0.174152 384.5 0.174152C383.027 0.174152 381.833 1.36806 381.833 2.84082C381.833 4.31358 383.027 5.50749 384.5 5.50749C385.973 5.50749 387.167 4.31358 387.167 2.84082ZM384.5 36.8408L384.818 37.2268L385 37.0768V36.8408H384.5ZM3.5 51.3408H367.5V50.3408H3.5V51.3408ZM367.818 51.2268L384.818 37.2268L384.182 36.4549L367.182 50.4549L367.818 51.2268ZM385 36.8408V2.84082H384V36.8408H385Z" fill="#E22126"/>
</svg>
