<svg width="409" height="54" viewBox="0 0 409 54" fill="none" xmlns="http://www.w3.org/2000/svg">
<path d="M6.09116 2.84082C6.09116 4.31358 4.89725 5.50749 3.4245 5.50749C1.95175 5.50749 0.757843 4.31358 0.757843 2.84082C0.757843 1.36806 1.95175 0.174154 3.4245 0.174154C4.89725 0.174154 6.09116 1.36806 6.09116 2.84082ZM388.5 2.84082V2.34082H388.679L388.818 2.45486L388.5 2.84082ZM408.167 50.8408C408.167 52.3136 406.973 53.5075 405.5 53.5075C404.027 53.5075 402.833 52.3136 402.833 50.8408C402.833 49.3681 404.027 48.1742 405.5 48.1742C406.973 48.1742 408.167 49.3681 408.167 50.8408ZM405.5 16.8408L405.818 16.4549L406 16.6049V16.8408H405.5ZM3.4245 2.34082H388.5V3.34082H3.4245V2.34082ZM388.818 2.45486L405.818 16.4549L405.182 17.2268L388.182 3.22679L388.818 2.45486ZM406 16.8408V50.8408H405V16.8408H406Z" fill="#E22126"/>
</svg>
