<svg width="351" height="233" viewBox="0 0 351 233" fill="none" xmlns="http://www.w3.org/2000/svg">
<path d="M0.374512 124.681H5.28186C5.48419 124.666 5.68756 124.692 5.87917 124.758C6.07077 124.824 6.24646 124.929 6.39517 125.066C6.54387 125.202 6.66238 125.368 6.74322 125.552C6.82406 125.736 6.86548 125.935 6.86488 126.136V230.398C6.86488 230.783 6.71001 231.153 6.43434 231.426C6.15867 231.699 5.78479 231.852 5.39493 231.852H0.374512V124.681Z" stroke="#590100" stroke-width="0.5" stroke-miterlimit="10"/>
<path d="M6.86499 152.671H259.446C260.037 152.698 260.597 152.943 261.015 153.357C261.433 153.771 261.68 154.324 261.708 154.909V165.29C261.385 165.494 261.004 165.588 260.622 165.558C260.334 165.529 260.056 165.438 259.808 165.29V158.958C259.754 158.537 259.564 158.145 259.266 157.84C258.959 157.558 258.572 157.378 258.157 157.325H6.86499V152.671Z" stroke="#590100" stroke-width="0.5" stroke-miterlimit="10"/>
<path d="M6.77441 199.723L233.553 160.703L235.271 157.324" stroke="#590100" stroke-width="0.5" stroke-miterlimit="10"/>
<path d="M6.4126 204.355L235.113 164.999H259.673" stroke="#590100" stroke-width="0.5" stroke-miterlimit="10"/>
<path d="M250.084 164.999H236.244V169.72H250.084V164.999Z" stroke="#590100" stroke-width="0.5" stroke-miterlimit="10"/>
<path d="M243.164 169.72V164.999" stroke="#590100" stroke-width="0.5" stroke-miterlimit="10"/>
<path d="M247.845 169.719H238.483V172.382H247.845V169.719Z" stroke="#590100" stroke-width="0.5" stroke-miterlimit="10"/>
<path d="M0.374512 129.133H6.7518" stroke="#590100" stroke-width="0.5" stroke-miterlimit="10"/>
<path d="M0.351807 227.109H6.75171" stroke="#590100" stroke-width="0.5" stroke-miterlimit="10"/>
<g clip-path="url(#clip0_2221_4267)">
<path d="M311.289 109.68C311.015 109.96 310.68 110.175 310.311 110.311C309.941 110.446 309.545 110.498 309.152 110.462H152.192C151.795 110.521 151.39 110.502 151.001 110.406C150.611 110.309 150.245 110.138 149.923 109.901C149.447 109.54 149.1 109.037 148.934 108.466C148.934 106.575 148.934 104.683 148.934 102.779H311.883V108.453C311.811 108.911 311.604 109.337 311.289 109.68Z" stroke="#590100" stroke-width="0.5" stroke-miterlimit="10"/>
<path d="M316.349 102.766C313.118 102.922 153.15 102.766 145.17 102.766C144.823 102.751 144.482 102.668 144.168 102.522C143.853 102.377 143.57 102.171 143.336 101.918C142.909 101.439 142.675 100.821 142.677 100.183V3.9859C142.635 3.60076 142.676 3.2113 142.797 2.84274C142.917 2.47419 143.114 2.13477 143.376 1.84646C143.785 1.42836 144.323 1.15746 144.906 1.07678C166.643 1.07678 342.94 0.894141 346.278 1.07678C347.17 1.11251 348.033 1.40742 348.757 1.92473C349.447 2.50916 349.913 3.31067 350.076 4.19463C350.327 14.8918 350.3 22.8626 350.076 25.6021C349.994 26.6333 349.84 27.6576 349.615 28.6678C349.285 30.1114 348.799 31.5154 348.164 32.8554C332.639 70.687 321.23 98.265 320.359 100.13C320.04 100.855 319.536 101.484 318.895 101.957C318.131 102.438 317.254 102.717 316.349 102.766Z" stroke="#590100" stroke-width="0.5" stroke-miterlimit="10"/>
<path d="M142.906 3.98584H350.305" stroke="#590100" stroke-width="0.5" stroke-miterlimit="10"/>
<path d="M142.906 34.6816H347.654" stroke="#590100" stroke-width="0.5" stroke-miterlimit="10"/>
<path d="M261.602 139.332V151.438C261.604 151.512 261.591 151.585 261.564 151.654C261.537 151.722 261.497 151.785 261.446 151.838C261.394 151.892 261.333 151.934 261.264 151.964C261.196 151.994 261.123 152.01 261.048 152.012H224.354C224.2 152.012 224.052 151.951 223.943 151.844C223.835 151.736 223.773 151.59 223.773 151.438V139.332C223.775 139.258 223.792 139.185 223.822 139.118C223.852 139.051 223.895 138.99 223.949 138.939C224.003 138.888 224.066 138.848 224.136 138.822C224.205 138.795 224.279 138.782 224.354 138.784H226.451C228.087 141.561 230.431 143.866 233.249 145.468C236.066 147.07 239.26 147.913 242.51 147.913C245.76 147.913 248.953 147.07 251.771 145.468C254.589 143.866 256.933 141.561 258.569 138.784H261.048C261.195 138.784 261.336 138.842 261.44 138.944C261.544 139.047 261.602 139.186 261.602 139.332Z" fill="#E22126"/>
<path d="M286.347 111.245H202.353V115.211H286.347V111.245Z" fill="#E22126"/>
<path d="M281.427 115.733H274.186V117.99H281.427V115.733Z" stroke="#590100" stroke-width="0.5" stroke-miterlimit="10"/>
<path d="M279.594 118.003H276.006V119.62H279.594V118.003Z" stroke="#590100" stroke-width="0.5" stroke-miterlimit="10"/>
<path d="M277.8 115.733V118.003" stroke="#590100" stroke-width="0.5" stroke-miterlimit="10"/>
<path d="M207.286 118.003H214.527V115.746H207.286V118.003Z" stroke="#590100" stroke-width="0.5" stroke-miterlimit="10"/>
<path d="M209.119 119.607H212.707V117.99H209.119V119.607Z" stroke="#590100" stroke-width="0.5" stroke-miterlimit="10"/>
<path d="M210.9 115.733V118.003" stroke="#590100" stroke-width="0.5" stroke-miterlimit="10"/>
<path d="M214.748 93.0471L238.827 89.5675L263.255 93.0471H214.748Z" fill="#E22126"/>
<path d="M238.827 69.0378V89.5675M238.827 89.5675L214.748 93.0471H263.255L238.827 89.5675Z" stroke="#E22126" stroke-width="0.5" stroke-miterlimit="10"/>
<path d="M239.035 68.8899L263.415 65.8779V44.6719H214.549V65.8779L238.929 68.8899H239.035Z" fill="#E22126"/>
<path d="M238.929 68.8899L214.549 71.9019V93.1079H263.415V71.9019L239.035 68.8899H238.929Z" stroke="#590100" stroke-width="0.5" stroke-miterlimit="10"/>
</g>
<path d="M224.048 115.461H261.458V129.258C261.458 139.588 253.083 147.963 242.753 147.963C232.422 147.963 224.048 139.588 224.048 129.258V115.461Z" stroke="#590100" stroke-width="0.5"/>
<defs>
<clipPath id="clip0_2221_4267">
<rect width="211.477" height="183.027" fill="white" transform="translate(139.171 0.828857)"/>
</clipPath>
</defs>
</svg>
