<svg width="254" height="213" viewBox="0 0 254 213" fill="none" xmlns="http://www.w3.org/2000/svg">
<g clip-path="url(#clip0_2221_3849)">
<path d="M171.027 171.837H82.9838V202.572H171.027V171.837Z" stroke="#590100" stroke-width="0.5" stroke-miterlimit="10"/>
<path d="M196.135 202.562H57.8653C56.9307 202.562 56.173 203.319 56.173 204.253V211.017C56.173 211.95 56.9307 212.708 57.8653 212.708H196.135C197.069 212.708 197.827 211.95 197.827 211.017V204.253C197.827 203.319 197.069 202.562 196.135 202.562Z" stroke="#590100" stroke-width="0.5" stroke-miterlimit="10"/>
<path d="M249.274 0.974121H4.73595C2.47012 0.974121 0.633301 2.80948 0.633301 5.07351V167.737C0.633301 170.001 2.47012 171.837 4.73595 171.837H249.274C251.54 171.837 253.377 170.001 253.377 167.737V5.07351C253.377 2.80948 251.54 0.974121 249.274 0.974121Z" stroke="#590100" stroke-width="0.5" stroke-miterlimit="10"/>
<path d="M171.027 171.837H82.9838V178.57H171.027V171.837Z" stroke="#590100" stroke-width="0.5" stroke-miterlimit="10"/>
<path d="M171.027 200.83H82.9838V202.572H171.027V200.83Z" stroke="#590100" stroke-width="0.5" stroke-miterlimit="10"/>
<path d="M248.618 6.40576H5.3822V156.894H248.618V6.40576Z" stroke="#590100" stroke-width="0.5" stroke-miterlimit="10"/>
<path d="M196.186 212.718H57.7217C57.3055 212.718 56.9064 212.553 56.6121 212.259C56.3178 211.965 56.1525 211.566 56.1525 211.15V211.027H197.827C197.834 211.246 197.797 211.465 197.717 211.67C197.638 211.875 197.518 212.062 197.365 212.22C197.212 212.377 197.029 212.503 196.826 212.588C196.624 212.674 196.406 212.718 196.186 212.718Z" stroke="#590100" stroke-width="0.5" stroke-miterlimit="10"/>
<path d="M129.733 164.294C129.733 164.839 129.572 165.372 129.268 165.825C128.965 166.279 128.534 166.632 128.03 166.841C127.526 167.049 126.971 167.104 126.436 166.998C125.901 166.891 125.409 166.629 125.023 166.243C124.638 165.858 124.375 165.366 124.268 164.832C124.162 164.297 124.217 163.742 124.425 163.239C124.634 162.735 124.988 162.304 125.442 162.001C125.895 161.699 126.429 161.537 126.974 161.537C127.337 161.536 127.696 161.606 128.032 161.744C128.367 161.882 128.672 162.085 128.928 162.341C129.185 162.598 129.388 162.902 129.526 163.237C129.664 163.572 129.735 163.931 129.733 164.294Z" stroke="#590100" stroke-width="0.5" stroke-miterlimit="10"/>
<path d="M177.56 134.706L181.17 133.999V126.631L177.581 125.852C177.257 124.718 176.806 123.625 176.237 122.593L178.288 119.518L173.078 114.312L170.001 116.3C168.972 115.728 167.881 115.275 166.75 114.947L166.042 111.34H158.667L157.888 114.927C156.754 115.251 155.66 115.701 154.626 116.269L151.549 114.22L146.329 119.436L148.308 122.511C147.738 123.54 147.284 124.63 146.954 125.759L143.344 126.467V133.835L146.934 134.614C147.258 135.744 147.709 136.834 148.277 137.863L146.226 140.937L151.447 146.154L154.524 144.166C155.547 144.74 156.635 145.191 157.765 145.508L158.483 149.126H165.847L166.637 145.529C167.769 145.208 168.86 144.757 169.888 144.186L172.965 146.236L178.175 141.019L176.196 137.945C176.767 136.918 177.224 135.832 177.56 134.706ZM152.011 130.248C152.011 128.221 152.612 126.24 153.739 124.555C154.866 122.869 156.468 121.556 158.342 120.78C160.217 120.004 162.279 119.801 164.268 120.197C166.258 120.592 168.086 121.568 169.52 123.002C170.954 124.435 171.931 126.261 172.327 128.249C172.723 130.237 172.52 132.298 171.743 134.17C170.967 136.043 169.652 137.643 167.966 138.77C166.279 139.896 164.296 140.497 162.267 140.497C160.921 140.497 159.587 140.232 158.342 139.717C157.098 139.202 155.967 138.447 155.015 137.495C154.063 136.543 153.307 135.414 152.792 134.17C152.276 132.927 152.011 131.594 152.011 130.248Z" fill="#E22126"/>
<path d="M225.417 112.119L230.679 111.094V100.343L225.448 99.2261C224.974 97.5796 224.317 95.9914 223.489 94.4913L226.474 90.0025L218.884 82.4083L214.361 85.2984C212.862 84.4634 211.272 83.8032 209.622 83.3307L208.597 78.0732H197.848L196.699 83.3102C195.05 83.7756 193.46 84.429 191.96 85.2574L187.499 82.2751L179.909 89.8692L182.791 94.3786C181.966 95.8813 181.305 97.4688 180.822 99.1134L175.56 100.138V110.889L180.801 112.026C181.278 113.674 181.931 115.265 182.75 116.771L179.775 121.219L187.376 128.803L191.888 125.923C193.386 126.751 194.972 127.407 196.617 127.881L197.642 133.149H208.402L209.55 127.912C211.198 127.436 212.787 126.78 214.289 125.954L218.751 128.947L226.34 121.342L223.448 116.833C224.281 115.341 224.942 113.76 225.417 112.119ZM188.196 105.621C188.194 102.669 189.068 99.7826 190.709 97.3272C192.349 94.8717 194.681 92.9576 197.41 91.8269C200.139 90.6963 203.143 90.3999 206.041 90.9753C208.938 91.5508 211.6 92.9721 213.689 95.0596C215.779 97.1471 217.201 99.8068 217.777 102.702C218.353 105.598 218.056 108.599 216.925 111.326C215.793 114.053 213.877 116.383 211.42 118.022C208.963 119.661 206.074 120.535 203.119 120.533C199.162 120.53 195.368 118.958 192.57 116.162C189.772 113.366 188.199 109.575 188.196 105.621Z" stroke="#590100" stroke-width="0.5" stroke-miterlimit="10"/>
<path d="M16.408 149.454H116.195C117.832 149.454 119.159 148.128 119.159 146.492V122.111C119.159 120.475 117.832 119.149 116.195 119.149L16.408 119.149C14.771 119.149 13.4438 120.475 13.4438 122.111V146.492C13.4438 148.128 14.771 149.454 16.408 149.454Z" stroke="#590100" stroke-width="0.5" stroke-miterlimit="10"/>
<path d="M34.1417 143.797H19.3107C19.3107 142.824 19.5025 141.86 19.8751 140.961C20.2478 140.062 20.794 139.245 21.4826 138.557C22.1712 137.869 22.9887 137.324 23.8884 136.951C24.7881 136.579 25.7524 136.387 26.7262 136.387C27.7 136.387 28.6643 136.579 29.564 136.951C30.4637 137.324 31.2812 137.869 31.9698 138.557C32.6584 139.245 33.2046 140.062 33.5773 140.961C33.9499 141.86 34.1417 142.824 34.1417 143.797ZM26.7262 126.692C25.9148 126.692 25.1216 126.933 24.4469 127.383C23.7722 127.833 23.2464 128.474 22.9359 129.223C22.6253 129.972 22.5441 130.796 22.7024 131.591C22.8607 132.386 23.2514 133.117 23.8252 133.69C24.399 134.264 25.13 134.654 25.9258 134.812C26.7217 134.97 27.5466 134.889 28.2962 134.579C29.0459 134.269 29.6866 133.743 30.1374 133.069C30.5882 132.395 30.8289 131.602 30.8289 130.792C30.8289 129.704 30.3966 128.662 29.6272 127.893C28.8578 127.124 27.8143 126.692 26.7262 126.692Z" fill="#E22126"/>
<path d="M71.8963 127.112H47.3112C46.4898 127.112 45.824 127.778 45.824 128.598V129.398C45.824 130.218 46.4898 130.884 47.3112 130.884H71.8963C72.7177 130.884 73.3835 130.218 73.3835 129.398V128.598C73.3835 127.778 72.7177 127.112 71.8963 127.112Z" stroke="#590100" stroke-width="0.5" stroke-miterlimit="10"/>
<path d="M87.1069 133.323H46.9214C46.3153 133.323 45.824 133.814 45.824 134.42V134.543C45.824 135.148 46.3153 135.639 46.9214 135.639H87.1069C87.713 135.639 88.2043 135.148 88.2043 134.543V134.42C88.2043 133.814 87.713 133.323 87.1069 133.323Z" stroke="#590100" stroke-width="0.5" stroke-miterlimit="10"/>
<path d="M69.8245 137.125H46.9214C46.3153 137.125 45.824 137.616 45.824 138.222V138.345C45.824 138.95 46.3153 139.441 46.9214 139.441H69.8245C70.4306 139.441 70.9219 138.95 70.9219 138.345V138.222C70.9219 137.616 70.4306 137.125 69.8245 137.125Z" stroke="#590100" stroke-width="0.5" stroke-miterlimit="10"/>
<path d="M96.4199 137.125H73.5169C72.9108 137.125 72.4194 137.616 72.4194 138.222V138.345C72.4194 138.95 72.9108 139.441 73.5169 139.441H96.4199C97.026 139.441 97.5174 138.95 97.5174 138.345V138.222C97.5174 137.616 97.026 137.125 96.4199 137.125Z" stroke="#590100" stroke-width="0.5" stroke-miterlimit="10"/>
<path d="M87.1069 140.917H46.9214C46.3153 140.917 45.824 141.408 45.824 142.014V142.137C45.824 142.742 46.3153 143.233 46.9214 143.233H87.1069C87.713 143.233 88.2043 142.742 88.2043 142.137V142.014C88.2043 141.408 87.713 140.917 87.1069 140.917Z" stroke="#590100" stroke-width="0.5" stroke-miterlimit="10"/>
<path d="M105.107 127.112H76.8913C76.0699 127.112 75.4041 127.778 75.4041 128.598V129.398C75.4041 130.218 76.0699 130.884 76.8913 130.884H105.107C105.929 130.884 106.594 130.218 106.594 129.398V128.598C106.594 127.778 105.929 127.112 105.107 127.112Z" stroke="#590100" stroke-width="0.5" stroke-miterlimit="10"/>
<path d="M228.525 23.9717H181.56C178.246 23.9717 175.56 26.6559 175.56 29.967V55.9777C175.56 59.2888 178.246 61.973 181.56 61.973H228.525C231.839 61.973 234.525 59.2888 234.525 55.9777V29.967C234.525 26.6559 231.839 23.9717 228.525 23.9717Z" stroke="#590100" stroke-width="0.5" stroke-miterlimit="10"/>
<path d="M248.618 6.40576H5.3822V16.6542H248.618V6.40576Z" fill="#E22126"/>
<path d="M243.428 11.5301C243.428 11.8808 243.324 12.2235 243.129 12.5151C242.934 12.8067 242.657 13.0339 242.333 13.1681C242.008 13.3023 241.652 13.3374 241.308 13.269C240.963 13.2006 240.647 13.0317 240.399 12.7838C240.151 12.5358 239.982 12.2199 239.913 11.876C239.845 11.5321 239.88 11.1756 240.014 10.8516C240.149 10.5276 240.376 10.2507 240.668 10.0559C240.96 9.86109 241.303 9.75711 241.654 9.75711C241.887 9.75575 242.118 9.80068 242.334 9.8893C242.55 9.97792 242.746 10.1085 242.911 10.2734C243.076 10.4383 243.207 10.6343 243.296 10.85C243.384 11.0657 243.429 11.2969 243.428 11.5301Z" fill="#FAFAFA" stroke="#590100" stroke-width="0.5" stroke-miterlimit="10"/>
<path d="M236.289 13.2928C237.264 13.2928 238.054 12.5036 238.054 11.5301C238.054 10.5565 237.264 9.76733 236.289 9.76733C235.315 9.76733 234.525 10.5565 234.525 11.5301C234.525 12.5036 235.315 13.2928 236.289 13.2928Z" fill="#FAFAFA" stroke="#590100" stroke-width="0.5" stroke-miterlimit="10"/>
<path d="M248.731 6.40576H5.38208V8.78341H248.731V6.40576Z" fill="#FAFAFA" stroke="#590100" stroke-width="0.5" stroke-miterlimit="10"/>
<path d="M230.915 13.2928C231.889 13.2928 232.679 12.5036 232.679 11.5301C232.679 10.5565 231.889 9.76733 230.915 9.76733C229.941 9.76733 229.151 10.5565 229.151 11.5301C229.151 12.5036 229.941 13.2928 230.915 13.2928Z" fill="#FAFAFA" stroke="#590100" stroke-width="0.5" stroke-miterlimit="10"/>
<path d="M189.683 44.4788V42.2447L198.453 38.6475V41.6298L194.022 43.3618L198.453 45.1347V48.0658L189.683 44.4788Z" fill="#E22126"/>
<path d="M207.017 36.4749H209.93L202.555 52.1858H199.642L207.017 36.4749Z" stroke="#590100" stroke-width="0.5" stroke-miterlimit="10"/>
<path d="M211.612 48.0658V45.104L216.043 43.3618L211.612 41.5888V38.6475L220.392 42.2447V44.4788L211.612 48.0658Z" fill="#E22126"/>
<rect x="13.6239" y="24.2339" width="124.677" height="16.8138" rx="2" fill="#E22126"/>
<rect x="13.6239" y="46.896" width="124.677" height="16.8138" rx="2" stroke="#590100" stroke-width="0.5" stroke-miterlimit="10"/>
<rect x="13.6239" y="69.5581" width="124.677" height="16.8138" rx="2" stroke="#590100" stroke-width="0.5" stroke-miterlimit="10"/>
<rect x="13.6239" y="92.2202" width="124.677" height="16.8138" rx="2" stroke="#590100" stroke-width="0.5" stroke-miterlimit="10"/>
</g>
<defs>
<clipPath id="clip0_2221_3849">
<rect width="253" height="212" fill="white" transform="translate(0.5 0.84082)"/>
</clipPath>
</defs>
</svg>
