<svg width="267" height="169" viewBox="0 0 267 169" fill="none" xmlns="http://www.w3.org/2000/svg">
<g clip-path="url(#clip0_2221_3770)">
<path d="M3.03466 138.583H264.99C265.388 138.583 265.769 138.741 266.049 139.024C266.33 139.306 266.488 139.689 266.488 140.088V167.313C266.488 167.712 266.33 168.095 266.049 168.377C265.769 168.66 265.388 168.818 264.99 168.818H2.01498C1.6187 168.818 1.23857 168.66 0.957859 168.379C0.677147 168.098 0.518739 167.717 0.517334 167.318V141.114C0.517334 140.442 0.783111 139.797 1.2562 139.322C1.72928 138.846 2.37093 138.579 3.03997 138.579L3.03466 138.583Z" stroke="#590100" stroke-width="0.5" stroke-miterlimit="10"/>
<path d="M246.391 166.281L51.2753 166.628C48.9637 166.628 47.089 165.131 47.0678 163.26L46.9921 156.682C46.9735 155.042 48.6172 153.7 50.642 153.704L246.754 153.971C249.069 153.971 250.942 155.481 250.963 157.354L251.022 162.488C251.044 164.572 248.962 166.277 246.391 166.281Z" stroke="#590100" stroke-width="0.5" stroke-miterlimit="10"/>
<path d="M100.946 142.436L106.736 142.484C106.869 142.484 106.999 142.519 107.114 142.586C107.229 142.652 107.324 142.747 107.391 142.862C107.458 142.977 107.494 143.108 107.496 143.241C107.497 143.374 107.464 143.506 107.4 143.622L104.535 148.8C104.468 148.918 104.372 149.017 104.255 149.085C104.139 149.154 104.006 149.19 103.871 149.19C103.736 149.19 103.603 149.154 103.486 149.085C103.37 149.017 103.273 148.918 103.207 148.8L100.286 143.575C100.222 143.459 100.189 143.328 100.19 143.195C100.192 143.062 100.227 142.932 100.294 142.817C100.36 142.702 100.455 142.606 100.57 142.54C100.684 142.473 100.814 142.437 100.946 142.436Z" fill="#E22126"/>
<path d="M5.0249 143.458V150.746" stroke="#590100" stroke-width="0.5" stroke-miterlimit="10"/>
<path d="M10.4246 143.239V147.567" stroke="#590100" stroke-width="0.5" stroke-miterlimit="10"/>
<path d="M16.1284 143.393V150.681" stroke="#590100" stroke-width="0.5" stroke-miterlimit="10"/>
<path d="M21.9822 143.218V147.545" stroke="#590100" stroke-width="0.5" stroke-miterlimit="10"/>
<path d="M27.2334 143.328V150.615" stroke="#590100" stroke-width="0.5" stroke-miterlimit="10"/>
<path d="M33.0872 143.174V147.501" stroke="#590100" stroke-width="0.5" stroke-miterlimit="10"/>
<path d="M38.3369 143.263V150.55" stroke="#590100" stroke-width="0.5" stroke-miterlimit="10"/>
<path d="M44.1907 143.128V147.456" stroke="#590100" stroke-width="0.5" stroke-miterlimit="10"/>
<path d="M49.4419 143.198V150.485" stroke="#590100" stroke-width="0.5" stroke-miterlimit="10"/>
<path d="M55.2957 143.084V147.412" stroke="#590100" stroke-width="0.5" stroke-miterlimit="10"/>
<path d="M60.5454 143.134V150.42" stroke="#590100" stroke-width="0.5" stroke-miterlimit="10"/>
<path d="M66.3992 143.04V147.368" stroke="#590100" stroke-width="0.5" stroke-miterlimit="10"/>
<path d="M71.6504 143.068V150.356" stroke="#590100" stroke-width="0.5" stroke-miterlimit="10"/>
<path d="M77.5042 142.996V147.324" stroke="#590100" stroke-width="0.5" stroke-miterlimit="10"/>
<path d="M82.7539 143.003V150.291" stroke="#590100" stroke-width="0.5" stroke-miterlimit="10"/>
<path d="M86.7954 142.956V147.284" stroke="#590100" stroke-width="0.5" stroke-miterlimit="10"/>
<path d="M92.7302 142.561V149.849" stroke="#590100" stroke-width="0.5" stroke-miterlimit="10"/>
<path d="M98.1326 142.664V146.992" stroke="#590100" stroke-width="0.5" stroke-miterlimit="10"/>
<path d="M109.69 142.643V146.97" stroke="#590100" stroke-width="0.5" stroke-miterlimit="10"/>
<path d="M114.863 142.432V149.718" stroke="#590100" stroke-width="0.5" stroke-miterlimit="10"/>
<path d="M120.795 142.598V146.926" stroke="#590100" stroke-width="0.5" stroke-miterlimit="10"/>
<path d="M125.971 142.75V150.038" stroke="#590100" stroke-width="0.5" stroke-miterlimit="10"/>
<path d="M131.899 142.553V146.881" stroke="#590100" stroke-width="0.5" stroke-miterlimit="10"/>
<path d="M137.15 142.685V149.973" stroke="#590100" stroke-width="0.5" stroke-miterlimit="10"/>
<path d="M143.004 142.509V146.837" stroke="#590100" stroke-width="0.5" stroke-miterlimit="10"/>
<path d="M148.179 142.621V149.908" stroke="#590100" stroke-width="0.5" stroke-miterlimit="10"/>
<path d="M154.107 142.465V146.793" stroke="#590100" stroke-width="0.5" stroke-miterlimit="10"/>
<path d="M159.358 142.556V149.973" stroke="#590100" stroke-width="0.5" stroke-miterlimit="10"/>
<path d="M165.212 142.421V146.749" stroke="#590100" stroke-width="0.5" stroke-miterlimit="10"/>
<path d="M170.462 142.49V149.778" stroke="#590100" stroke-width="0.5" stroke-miterlimit="10"/>
<path d="M174.503 142.38V146.708" stroke="#590100" stroke-width="0.5" stroke-miterlimit="10"/>
<path d="M180.203 141.667V148.954" stroke="#590100" stroke-width="0.5" stroke-miterlimit="10"/>
<path d="M185.604 141.637V145.965" stroke="#590100" stroke-width="0.5" stroke-miterlimit="10"/>
<path d="M191.232 141.602V148.888" stroke="#590100" stroke-width="0.5" stroke-miterlimit="10"/>
<path d="M197.163 141.616V145.944" stroke="#590100" stroke-width="0.5" stroke-miterlimit="10"/>
<path d="M202.337 141.537V148.824" stroke="#590100" stroke-width="0.5" stroke-miterlimit="10"/>
<path d="M208.267 141.572V145.9" stroke="#590100" stroke-width="0.5" stroke-miterlimit="10"/>
<path d="M213.517 141.472V148.759" stroke="#590100" stroke-width="0.5" stroke-miterlimit="10"/>
<path d="M219.372 141.527V145.855" stroke="#590100" stroke-width="0.5" stroke-miterlimit="10"/>
<path d="M224.62 141.407V148.695" stroke="#590100" stroke-width="0.5" stroke-miterlimit="10"/>
<path d="M230.475 141.483V145.811" stroke="#590100" stroke-width="0.5" stroke-miterlimit="10"/>
<path d="M235.725 141.341V148.629" stroke="#590100" stroke-width="0.5" stroke-miterlimit="10"/>
<path d="M241.58 141.439V145.767" stroke="#590100" stroke-width="0.5" stroke-miterlimit="10"/>
<path d="M246.829 141.277V148.948" stroke="#590100" stroke-width="0.5" stroke-miterlimit="10"/>
<path d="M252.684 141.395V145.722" stroke="#590100" stroke-width="0.5" stroke-miterlimit="10"/>
<path d="M257.934 141.212V148.883" stroke="#590100" stroke-width="0.5" stroke-miterlimit="10"/>
<path d="M261.975 141.353V145.681" stroke="#590100" stroke-width="0.5" stroke-miterlimit="10"/>
<path d="M104.081 149.19H103.59V167.94H104.081V149.19Z" fill="#E22126"/>
<path d="M196.255 124.718C196.256 125.555 196.092 126.384 195.774 127.157C195.455 127.931 194.989 128.633 194.4 129.225C193.811 129.817 193.112 130.287 192.343 130.607C191.574 130.927 190.749 131.092 189.917 131.092C186.417 131.092 182.965 128.423 182.965 124.906C182.965 121.39 186.417 118.351 189.917 118.351C191.597 118.351 193.209 119.021 194.398 120.215C195.586 121.409 196.254 123.029 196.255 124.718Z" fill="#E22126"/>
<path d="M187.292 121.974V127.649C187.292 127.882 187.383 128.107 187.546 128.273C187.71 128.439 187.932 128.534 188.164 128.536H188.306C188.537 128.539 188.759 128.451 188.926 128.291C189.092 128.131 189.19 127.912 189.199 127.681L189.403 122.004C189.407 121.885 189.388 121.766 189.345 121.654C189.303 121.543 189.238 121.441 189.156 121.355C189.074 121.27 188.975 121.201 188.866 121.155C188.756 121.108 188.639 121.084 188.52 121.084H188.175C188.059 121.084 187.944 121.107 187.836 121.152C187.729 121.197 187.632 121.262 187.55 121.345C187.468 121.428 187.403 121.526 187.358 121.634C187.314 121.742 187.292 121.858 187.292 121.974Z" fill="#FAFAFA"/>
<path d="M190.688 121.783L190.388 127.725C190.384 127.821 190.409 127.917 190.459 127.999C190.51 128.081 190.585 128.145 190.673 128.184C190.761 128.222 190.859 128.233 190.953 128.214C191.047 128.196 191.134 128.149 191.201 128.08L194.059 125.125C194.142 125.04 194.19 124.926 194.193 124.807C194.196 124.688 194.155 124.572 194.078 124.482L191.519 121.498C191.458 121.426 191.376 121.374 191.285 121.349C191.194 121.324 191.097 121.327 191.007 121.357C190.918 121.388 190.84 121.445 190.783 121.521C190.726 121.597 190.693 121.689 190.688 121.783Z" fill="#FAFAFA"/>
<path d="M144.849 124.718C144.849 125.556 145.012 126.385 145.331 127.159C145.65 127.933 146.117 128.636 146.707 129.228C147.296 129.82 147.996 130.289 148.766 130.609C149.536 130.929 150.361 131.093 151.194 131.092C154.694 131.092 158.146 128.423 158.146 124.906C158.146 121.39 154.694 118.351 151.194 118.351C150.362 118.35 149.537 118.514 148.767 118.833C147.998 119.153 147.298 119.622 146.709 120.213C146.12 120.804 145.652 121.507 145.333 122.28C145.014 123.053 144.849 123.881 144.849 124.718Z" fill="#E22126"/>
<path d="M153.814 121.974V127.649C153.814 127.882 153.723 128.107 153.559 128.273C153.396 128.439 153.174 128.534 152.942 128.536H152.799C152.569 128.539 152.347 128.451 152.18 128.291C152.013 128.131 151.915 127.912 151.906 127.681L151.703 122.004C151.698 121.885 151.718 121.766 151.76 121.654C151.802 121.543 151.867 121.441 151.949 121.355C152.031 121.27 152.13 121.201 152.239 121.155C152.348 121.108 152.466 121.084 152.584 121.084H152.931C153.047 121.084 153.162 121.107 153.269 121.152C153.377 121.197 153.474 121.262 153.556 121.345C153.638 121.428 153.703 121.526 153.747 121.634C153.792 121.742 153.814 121.858 153.814 121.974Z" fill="#FAFAFA"/>
<path d="M150.418 121.784L150.718 127.725C150.722 127.821 150.697 127.917 150.646 127.999C150.596 128.081 150.521 128.146 150.433 128.184C150.345 128.223 150.247 128.233 150.153 128.215C150.059 128.196 149.972 128.149 149.905 128.08L147.045 125.125C146.963 125.04 146.916 124.926 146.912 124.807C146.909 124.688 146.949 124.572 147.027 124.482L149.585 121.498C149.647 121.426 149.729 121.374 149.82 121.349C149.911 121.324 150.008 121.327 150.097 121.358C150.187 121.389 150.265 121.446 150.322 121.522C150.379 121.597 150.413 121.689 150.418 121.784Z" fill="#FAFAFA"/>
<path d="M178.737 124.718C178.737 126.935 177.861 129.062 176.302 130.629C174.742 132.197 172.626 133.078 170.421 133.078C165.827 133.078 161.298 129.577 161.298 124.961C161.298 120.345 165.827 116.357 170.421 116.357C171.513 116.357 172.595 116.574 173.604 116.994C174.613 117.414 175.53 118.03 176.302 118.806C177.074 119.583 177.687 120.504 178.105 121.519C178.523 122.533 178.738 123.62 178.737 124.718Z" fill="#E22126"/>
<path d="M167.86 119.538V130.08C167.86 130.137 167.875 130.192 167.904 130.24C167.933 130.288 167.975 130.327 168.025 130.353C168.074 130.379 168.13 130.391 168.186 130.387C168.242 130.384 168.296 130.365 168.342 130.333L176.141 124.861C176.182 124.832 176.215 124.794 176.238 124.749C176.261 124.704 176.273 124.654 176.272 124.604C176.271 124.554 176.258 124.504 176.234 124.46C176.209 124.416 176.175 124.379 176.133 124.351L168.332 119.28C168.286 119.25 168.233 119.233 168.178 119.231C168.123 119.229 168.068 119.242 168.02 119.268C167.972 119.295 167.931 119.333 167.903 119.381C167.875 119.428 167.86 119.482 167.86 119.538Z" fill="#FAFAFA"/>
<path d="M69.4145 105.052H1.00062C0.733708 105.052 0.517334 105.27 0.517334 105.538V132.907C0.517334 133.175 0.733708 133.393 1.00062 133.393H69.4145C69.6814 133.393 69.8978 133.175 69.8978 132.907V105.538C69.8978 105.27 69.6814 105.052 69.4145 105.052Z" stroke="#590100" stroke-width="0.5" stroke-miterlimit="10"/>
<path d="M69.4145 70.321H1.00062C0.733708 70.321 0.517334 70.5385 0.517334 70.8068V98.1756C0.517334 98.4439 0.733708 98.6614 1.00062 98.6614H69.4145C69.6814 98.6614 69.8978 98.4439 69.8978 98.1756V70.8068C69.8978 70.5385 69.6814 70.321 69.4145 70.321Z" stroke="#590100" stroke-width="0.5" stroke-miterlimit="10"/>
<path d="M69.4145 35.5896H1.00062C0.733708 35.5896 0.517334 35.8071 0.517334 36.0754V63.4441C0.517334 63.7124 0.733708 63.9299 1.00062 63.9299H69.4145C69.6814 63.9299 69.8978 63.7124 69.8978 63.4441V36.0754C69.8978 35.8071 69.6814 35.5896 69.4145 35.5896Z" fill="#E22126"/>
<path d="M266.001 0.858154H75.1036C74.8367 0.858154 74.6204 1.07564 74.6204 1.34393V112.602C74.6204 112.87 74.8367 113.088 75.1036 113.088H266.001C266.268 113.088 266.484 112.87 266.484 112.602V1.34393C266.484 1.07564 266.268 0.858154 266.001 0.858154Z" stroke="#590100" stroke-width="0.5" stroke-miterlimit="10"/>
<path d="M144.379 47.376C142.229 51.5665 141.185 56.2115 141.338 60.8927C141.492 65.5739 142.839 70.1444 145.259 74.1929L165.576 51.0124L144.379 47.376Z" fill="#E22126"/>
<path d="M168.394 30.8127C163.472 31.0851 158.699 32.5984 154.515 35.2126C150.33 37.8268 146.87 41.4577 144.453 45.7696L175.747 51.3198L168.394 30.8127Z" fill="#E22126"/>
<path d="M195.364 72.6154C196.61 70.1137 197.491 67.4455 197.982 64.6925C199.194 57.9244 197.958 50.9446 194.495 45.0098L174.182 68.869L195.364 72.6154Z" fill="#E22126"/>
<path d="M193.741 43.8785C191.605 40.574 188.806 37.7459 185.519 35.572C182.232 33.3982 178.529 31.9258 174.643 31.2475C172.941 30.9496 171.216 30.8042 169.488 30.8131L179.954 59.9958L193.741 43.8785Z" fill="#E22126"/>
<path d="M146.018 75.7693C148.632 79.9551 152.23 83.3819 156.473 85.7271C160.716 88.0722 165.464 89.2587 170.271 89.1747L159.643 59.207L146.018 75.7693Z" fill="#E22126"/>
<path d="M171.503 88.3902C176.397 88.0907 181.137 86.6229 185.293 84.1198C189.449 81.6166 192.89 78.1569 195.306 74.0536L164.012 68.6719L171.503 88.3902Z" fill="#E22126"/>
<path d="M215.201 28.4465H124.558C121.287 28.4465 118.635 31.119 118.635 34.4156V85.576C118.635 88.8727 121.287 91.5451 124.558 91.5451H215.201C218.472 91.5451 221.123 88.8727 221.123 85.576V34.4156C221.123 31.119 218.472 28.4465 215.201 28.4465Z" stroke="#590100" stroke-width="0.5" stroke-miterlimit="10"/>
<path d="M136.644 22.1367H128.791C127.503 22.1367 126.459 23.0195 126.459 24.1085C126.459 25.1976 127.503 26.0804 128.791 26.0804H136.644C137.932 26.0804 138.976 25.1976 138.976 24.1085C138.976 23.0195 137.932 22.1367 136.644 22.1367Z" fill="#E22126"/>
<path d="M69.4145 0.858154H1.00062C0.733708 0.858154 0.517334 1.07564 0.517334 1.34393V28.7127C0.517334 28.981 0.733708 29.1985 1.00062 29.1985H69.4145C69.6814 29.1985 69.8978 28.981 69.8978 28.7127V1.34393C69.8978 1.07564 69.6814 0.858154 69.4145 0.858154Z" stroke="#590100" stroke-width="0.5" stroke-miterlimit="10"/>
</g>
<defs>
<clipPath id="clip0_2221_3770">
<rect width="266" height="168" fill="white" transform="translate(0.5 0.84082)"/>
</clipPath>
</defs>
</svg>
