<svg width="44" height="41" viewBox="0 0 44 41" fill="none" xmlns="http://www.w3.org/2000/svg">
<path d="M1 1H43V29.169H26.7727L22 39L17.2273 29.169H1V1Z" stroke="#E22126"/>
<path d="M12.1581 12.1L10.5021 12.988L10.0941 12.16L12.4461 10.9H13.0941V19H12.1581V12.1ZM19.5258 13.216C19.5258 12.792 19.3538 12.432 19.0098 12.136C18.6578 11.832 18.2458 11.68 17.7738 11.68C17.3498 11.68 16.9698 11.804 16.6338 12.052C16.2978 12.292 16.0458 12.628 15.8778 13.06L15.0138 12.652C15.2538 12.076 15.6178 11.62 16.1058 11.284C16.5938 10.948 17.1498 10.78 17.7738 10.78C18.5258 10.78 19.1698 11.016 19.7058 11.488C20.2338 11.96 20.4978 12.528 20.4978 13.192C20.4978 13.624 20.3658 14.048 20.1018 14.464C19.8378 14.872 19.4058 15.364 18.8058 15.94L16.5618 18.1H20.6178V19H15.0978V18.316L18.1818 15.328C18.6698 14.84 19.0138 14.448 19.2138 14.152C19.4218 13.848 19.5258 13.536 19.5258 13.216ZM22.0883 21.1H21.2363L26.5523 9.7H27.4043L22.0883 21.1ZM27.6764 10.9H33.0044V11.812L30.1004 19H29.0924L32.0204 11.764H27.6764V10.9Z" fill="#E22126"/>
</svg>
