<svg width="14" height="15" viewBox="0 0 14 15" fill="none" xmlns="http://www.w3.org/2000/svg">
<g clip-path="url(#clip0_2208_465)">
<path d="M6.20381 13.9936C5.47011 13.913 4.75372 13.7171 4.08106 13.4131C3.37161 13.0859 2.7226 12.6411 2.1615 12.0974C1.55616 11.5245 1.05864 10.8474 0.692654 10.0985C0.352897 9.38007 0.134145 8.61043 0.0452363 7.82067C0.00382912 7.45466 -0.00917973 7.08599 0.00632639 6.71797C0.0265708 6.21658 0.101226 5.71889 0.228977 5.23364C0.313797 4.91645 0.422181 4.60604 0.553227 4.30499C1.1105 2.99274 2.0547 1.88173 3.25978 1.12026C4.46486 0.358803 5.87348 -0.0168782 7.29761 0.0433713C8.13377 0.0740945 8.95725 0.25766 9.72732 0.584993C11.0408 1.14077 12.1533 2.08443 12.916 3.28976C13.6788 4.49509 14.0554 5.90463 13.9955 7.32986C13.9747 8.16629 13.7911 8.99065 13.4551 9.75689C12.8787 11.0218 12.0943 12.0135 11.1021 12.732C10.1172 13.4217 8.97614 13.8553 7.78182 13.9936C7.25745 14.0522 6.72818 14.0522 6.20381 13.9936ZM1.01582 7.04661C1.01732 8.23179 1.37028 9.38989 2.03002 10.3744C2.68977 11.3588 3.62665 12.1254 4.72211 12.5771C5.81757 13.0289 7.02238 13.1454 8.18408 12.912C9.34578 12.6786 10.4122 12.1058 11.2483 11.266C12.0844 10.4262 12.6526 9.3572 12.8812 8.19427C13.1097 7.03134 12.9882 5.82675 12.532 4.73292C12.0758 3.63908 11.3055 2.70518 10.3186 2.04938C9.33159 1.39358 8.17231 1.04536 6.98741 1.04878C5.40184 1.05846 3.88424 1.6941 2.76487 2.81737C1.6455 3.94065 1.01495 5.46065 1.01042 7.04661H1.01582Z" fill="#B2B2B2"/>
<path d="M6.51 3.77642C6.51362 3.68626 6.54002 3.59848 6.58674 3.52129C6.62993 3.45329 6.689 3.3968 6.75885 3.35669C6.8287 3.31658 6.90724 3.29404 6.98773 3.29102C7.11675 3.29565 7.2397 3.34698 7.33373 3.43546C7.42776 3.52395 7.48648 3.64357 7.49896 3.7721C7.5096 3.85671 7.51429 3.94196 7.51301 4.02723C7.51301 4.8921 7.51301 5.76237 7.51301 6.62939C7.50865 6.69319 7.52125 6.757 7.54954 6.81435C7.57783 6.87169 7.62079 6.92053 7.67406 6.95588C8.25663 7.38831 8.83271 7.82075 9.40987 8.25318C9.69845 8.46939 9.76655 8.7775 9.58281 9.01966C9.39906 9.26183 9.09859 9.28453 8.81541 9.0748C8.14206 8.5775 7.47518 8.06399 6.79642 7.56993C6.70364 7.50558 6.62676 7.42091 6.57161 7.32237C6.5089 7.2014 6.47908 7.06606 6.48514 6.92993C6.49919 5.8748 6.45596 4.82615 6.51 3.77642Z" fill="#B2B2B2"/>
</g>
<defs>
<clipPath id="clip0_2208_465">
<rect width="14" height="14" fill="white" transform="translate(0 0.0371094)"/>
</clipPath>
</defs>
</svg>
